<?xml version="1.0" encoding="utf-8" standalone="no"?>
<!DOCTYPE svg PUBLIC "-//W3C//DTD SVG 1.1//EN"
  "http://www.w3.org/Graphics/SVG/1.1/DTD/svg11.dtd">
<svg xmlns:xlink="http://www.w3.org/1999/xlink" width="255.11811pt" height="212.598425pt" viewBox="0 0 255.11811 212.598425" xmlns="http://www.w3.org/2000/svg" version="1.1">
 <metadata>
  <rdf:RDF xmlns:dc="http://purl.org/dc/elements/1.1/" xmlns:cc="http://creativecommons.org/ns#" xmlns:rdf="http://www.w3.org/1999/02/22-rdf-syntax-ns#">
   <cc:Work>
    <dc:type rdf:resource="http://purl.org/dc/dcmitype/StillImage"/>
    <dc:date>2024-01-29T00:03:56.489883</dc:date>
    <dc:format>image/svg+xml</dc:format>
    <dc:creator>
     <cc:Agent>
      <dc:title>Matplotlib v3.7.1, https://matplotlib.org/</dc:title>
     </cc:Agent>
    </dc:creator>
   </cc:Work>
  </rdf:RDF>
 </metadata>
 <defs>
  <style type="text/css">*{stroke-linejoin: round; stroke-linecap: butt}</style>
 </defs>
 <g id="figure_1">
  <g id="patch_1">
   <path d="M 0 212.598425 
L 255.11811 212.598425 
L 255.11811 0 
L 0 0 
z
" style="fill: #ffffff"/>
  </g>
  <g id="axes_1">
   <g id="patch_2">
    <path d="M 20.409449 46.062992 
L 247.464567 46.062992 
L 247.464567 6.377953 
L 20.409449 6.377953 
L 20.409449 46.062992 
z
" style="fill: none; opacity: 0"/>
   </g>
   <g id="PolyCollection_1">
    <defs>
     <path id="mc23af67584" d="M 81.227784 -166.653778 
L 81.227784 -166.767676 
L 83.070764 -166.839081 
L 84.913744 -166.904563 
L 86.756724 -166.94238 
L 88.599703 -166.944095 
L 90.442683 -166.919621 
L 92.285663 -166.895036 
L 94.128643 -166.908428 
L 95.971623 -166.998197 
L 97.814603 -167.179286 
L 99.657583 -167.423908 
L 101.500562 -167.675774 
L 103.343542 -167.897144 
L 105.186522 -168.099899 
L 107.029502 -168.320734 
L 108.872482 -168.573336 
L 110.715462 -168.841614 
L 112.558442 -169.115083 
L 114.401421 -169.412418 
L 116.244401 -169.773041 
L 118.087381 -170.241249 
L 119.930361 -170.853831 
L 121.773341 -171.625849 
L 123.616321 -172.540572 
L 125.459301 -173.553067 
L 127.30228 -174.615064 
L 129.14526 -175.714789 
L 130.98824 -176.88143 
L 132.83122 -178.120697 
L 134.6742 -179.367339 
L 136.51718 -180.557466 
L 138.36016 -181.738052 
L 140.203139 -183.038321 
L 142.046119 -184.520067 
L 143.889099 -186.102127 
L 145.732079 -187.646954 
L 147.575059 -189.101286 
L 149.418039 -190.553991 
L 151.261019 -192.162517 
L 153.103998 -194.000142 
L 154.946978 -195.963749 
L 156.789958 -197.847492 
L 158.632938 -199.505005 
L 160.475918 -200.923377 
L 162.318898 -202.149339 
L 164.161877 -203.17437 
L 166.004857 -203.920886 
L 167.847837 -204.354221 
L 169.690817 -204.588373 
L 171.533797 -204.838016 
L 173.376777 -205.234626 
L 175.219757 -205.696535 
L 177.062736 -206.018464 
L 178.905716 -206.102127 
L 180.748696 -206.050274 
L 182.591676 -205.990405 
L 184.434656 -205.838467 
L 186.277636 -205.297744 
L 188.120616 -204.107508 
L 189.963595 -202.284077 
L 191.806575 -200.126443 
L 193.649555 -197.994744 
L 195.492535 -196.060386 
L 197.335515 -194.225775 
L 199.178495 -192.260193 
L 201.021475 -190.036409 
L 202.864454 -187.670945 
L 204.707434 -185.431498 
L 206.550414 -183.492806 
L 208.393394 -181.796141 
L 210.236374 -180.158117 
L 212.079354 -178.489641 
L 213.922334 -176.873198 
L 215.765313 -175.433264 
L 217.608293 -174.178556 
L 219.451273 -173.001315 
L 221.294253 -171.809632 
L 223.137233 -170.626365 
L 224.980213 -169.562494 
L 226.823193 -168.721277 
L 228.666172 -168.132041 
L 230.509152 -167.75167 
L 232.352132 -167.507598 
L 234.195112 -167.337699 
L 236.038092 -167.203031 
L 237.881072 -167.082071 
L 239.724052 -166.96616 
L 241.567031 -166.859161 
L 243.410011 -166.771975 
L 245.252991 -166.712138 
L 247.095971 -166.678178 
L 248.938951 -166.662335 
L 250.781931 -166.656274 
L 252.624911 -166.654379 
L 254.46789 -166.653897 
L 256.31087 -166.653797 
L 258.15385 -166.653781 
L 259.99683 -166.653778 
L 261.83981 -166.653778 
L 263.68279 -166.653778 
L 263.68279 -166.653778 
L 263.68279 -166.653778 
L 261.83981 -166.653778 
L 259.99683 -166.653778 
L 258.15385 -166.653778 
L 256.31087 -166.653778 
L 254.46789 -166.653778 
L 252.624911 -166.653778 
L 250.781931 -166.653778 
L 248.938951 -166.653778 
L 247.095971 -166.653778 
L 245.252991 -166.653778 
L 243.410011 -166.653778 
L 241.567031 -166.653778 
L 239.724052 -166.653778 
L 237.881072 -166.653778 
L 236.038092 -166.653778 
L 234.195112 -166.653778 
L 232.352132 -166.653778 
L 230.509152 -166.653778 
L 228.666172 -166.653778 
L 226.823193 -166.653778 
L 224.980213 -166.653778 
L 223.137233 -166.653778 
L 221.294253 -166.653778 
L 219.451273 -166.653778 
L 217.608293 -166.653778 
L 215.765313 -166.653778 
L 213.922334 -166.653778 
L 212.079354 -166.653778 
L 210.236374 -166.653778 
L 208.393394 -166.653778 
L 206.550414 -166.653778 
L 204.707434 -166.653778 
L 202.864454 -166.653778 
L 201.021475 -166.653778 
L 199.178495 -166.653778 
L 197.335515 -166.653778 
L 195.492535 -166.653778 
L 193.649555 -166.653778 
L 191.806575 -166.653778 
L 189.963595 -166.653778 
L 188.120616 -166.653778 
L 186.277636 -166.653778 
L 184.434656 -166.653778 
L 182.591676 -166.653778 
L 180.748696 -166.653778 
L 178.905716 -166.653778 
L 177.062736 -166.653778 
L 175.219757 -166.653778 
L 173.376777 -166.653778 
L 171.533797 -166.653778 
L 169.690817 -166.653778 
L 167.847837 -166.653778 
L 166.004857 -166.653778 
L 164.161877 -166.653778 
L 162.318898 -166.653778 
L 160.475918 -166.653778 
L 158.632938 -166.653778 
L 156.789958 -166.653778 
L 154.946978 -166.653778 
L 153.103998 -166.653778 
L 151.261019 -166.653778 
L 149.418039 -166.653778 
L 147.575059 -166.653778 
L 145.732079 -166.653778 
L 143.889099 -166.653778 
L 142.046119 -166.653778 
L 140.203139 -166.653778 
L 138.36016 -166.653778 
L 136.51718 -166.653778 
L 134.6742 -166.653778 
L 132.83122 -166.653778 
L 130.98824 -166.653778 
L 129.14526 -166.653778 
L 127.30228 -166.653778 
L 125.459301 -166.653778 
L 123.616321 -166.653778 
L 121.773341 -166.653778 
L 119.930361 -166.653778 
L 118.087381 -166.653778 
L 116.244401 -166.653778 
L 114.401421 -166.653778 
L 112.558442 -166.653778 
L 110.715462 -166.653778 
L 108.872482 -166.653778 
L 107.029502 -166.653778 
L 105.186522 -166.653778 
L 103.343542 -166.653778 
L 101.500562 -166.653778 
L 99.657583 -166.653778 
L 97.814603 -166.653778 
L 95.971623 -166.653778 
L 94.128643 -166.653778 
L 92.285663 -166.653778 
L 90.442683 -166.653778 
L 88.599703 -166.653778 
L 86.756724 -166.653778 
L 84.913744 -166.653778 
L 83.070764 -166.653778 
L 81.227784 -166.653778 
z
"/>
    </defs>
    <g clip-path="url(#p8047b6da9f)">
     <use xlink:href="#mc23af67584" x="0" y="212.598425" style="fill: #fcd8d8"/>
    </g>
   </g>
   <g id="line2d_1">
    <path d="M 81.227784 45.83075 
L 83.070764 45.759345 
L 84.913744 45.693863 
L 86.756724 45.656045 
L 88.599703 45.65433 
L 90.442683 45.678804 
L 92.285663 45.703389 
L 94.128643 45.689997 
L 95.971623 45.600228 
L 97.814603 45.41914 
L 99.657583 45.174517 
L 101.500562 44.922651 
L 103.343542 44.701281 
L 105.186522 44.498526 
L 107.029502 44.277691 
L 108.872482 44.02509 
L 110.715462 43.756811 
L 112.558442 43.483342 
L 114.401421 43.186007 
L 116.244401 42.825385 
L 118.087381 42.357176 
L 119.930361 41.744594 
L 121.773341 40.972576 
L 123.616321 40.057853 
L 125.459301 39.045358 
L 127.30228 37.983362 
L 129.14526 36.883636 
L 130.98824 35.716995 
L 132.83122 34.477728 
L 134.6742 33.231086 
L 136.51718 32.040959 
L 138.36016 30.860373 
L 140.203139 29.560105 
L 142.046119 28.078358 
L 143.889099 26.496298 
L 145.732079 24.951472 
L 147.575059 23.497139 
L 149.418039 22.044435 
L 151.261019 20.435908 
L 153.103998 18.598283 
L 154.946978 16.634676 
L 156.789958 14.750933 
L 158.632938 13.09342 
L 160.475918 11.675048 
L 162.318898 10.449087 
L 164.161877 9.424055 
L 166.004857 8.67754 
L 167.847837 8.244204 
L 169.690817 8.010052 
L 171.533797 7.760409 
L 173.376777 7.3638 
L 175.219757 6.90189 
L 177.062736 6.579961 
L 178.905716 6.496298 
L 180.748696 6.548151 
L 182.591676 6.608021 
L 184.434656 6.759958 
L 186.277636 7.300681 
L 188.120616 8.490917 
L 189.963595 10.314348 
L 191.806575 12.471982 
L 193.649555 14.603681 
L 195.492535 16.538039 
L 197.335515 18.37265 
L 199.178495 20.338233 
L 201.021475 22.562017 
L 202.864454 24.92748 
L 204.707434 27.166927 
L 206.550414 29.10562 
L 208.393394 30.802284 
L 210.236374 32.440308 
L 212.079354 34.108784 
L 213.922334 35.725227 
L 215.765313 37.165161 
L 217.608293 38.419869 
L 219.451273 39.59711 
L 221.294253 40.788793 
L 223.137233 41.97206 
L 224.980213 43.035931 
L 226.823193 43.877148 
L 228.666172 44.466384 
L 230.509152 44.846755 
L 232.352132 45.090827 
L 234.195112 45.260727 
L 236.038092 45.395394 
L 237.881072 45.516354 
L 239.724052 45.632266 
L 241.567031 45.739265 
L 243.410011 45.826451 
L 245.252991 45.886288 
L 247.095971 45.920247 
L 248.938951 45.936091 
L 250.781931 45.942151 
L 252.624911 45.944046 
L 254.46789 45.944529 
L 256.11811 45.944618 
" clip-path="url(#p8047b6da9f)" style="fill: none; stroke: #ffffff; stroke-width: 0.75; stroke-linecap: square"/>
   </g>
   <g id="patch_3">
    <path d="M 20.409449 46.062992 
L 247.464567 46.062992 
" style="fill: none; stroke: #ced4da; stroke-width: 0.5; stroke-linejoin: miter; stroke-linecap: square"/>
   </g>
   <g id="matplotlib.axis_1">
    <g id="xtick_1"/>
    <g id="xtick_2"/>
    <g id="xtick_3"/>
    <g id="xtick_4"/>
    <g id="xtick_5"/>
    <g id="xtick_6"/>
    <g id="xtick_7"/>
    <g id="xtick_8"/>
    <g id="xtick_9"/>
    <g id="xtick_10"/>
    <g id="xtick_11"/>
    <g id="xtick_12"/>
    <g id="xtick_13"/>
    <g id="xtick_14"/>
    <g id="xtick_15"/>
    <g id="xtick_16"/>
    <g id="xtick_17"/>
    <g id="xtick_18"/>
    <g id="xtick_19"/>
    <g id="xtick_20"/>
    <g id="xtick_21"/>
    <g id="xtick_22"/>
    <g id="xtick_23"/>
    <g id="xtick_24"/>
    <g id="xtick_25"/>
    <g id="xtick_26"/>
    <g id="xtick_27"/>
    <g id="xtick_28"/>
    <g id="xtick_29"/>
    <g id="xtick_30"/>
    <g id="xtick_31"/>
    <g id="xtick_32"/>
   </g>
   <g id="matplotlib.axis_2"/>
   <g id="text_1">
    <!-- Original uncertainty -->
    <g transform="translate(20.409449 43.56893) scale(0.07 -0.07)">
     <defs>
      <path id="Roboto-Regular-4f" d="M 4028 2128 
Q 4028 1459 3803 961 
Q 3578 463 3165 200 
Q 2753 -63 2203 -63 
Q 1666 -63 1250 201 
Q 834 466 604 955 
Q 375 1444 369 2088 
L 369 2416 
Q 369 3072 597 3575 
Q 825 4078 1242 4345 
Q 1659 4613 2197 4613 
Q 2744 4613 3161 4348 
Q 3578 4084 3803 3582 
Q 4028 3081 4028 2416 
L 4028 2128 
z
M 3431 2422 
Q 3431 3231 3106 3664 
Q 2781 4097 2197 4097 
Q 1628 4097 1301 3664 
Q 975 3231 966 2463 
L 966 2128 
Q 966 1344 1295 895 
Q 1625 447 2203 447 
Q 2784 447 3103 870 
Q 3422 1294 3431 2084 
L 3431 2422 
z
" transform="scale(0.015625)"/>
      <path id="Roboto-Regular-72" d="M 2072 2863 
Q 1941 2884 1788 2884 
Q 1219 2884 1016 2400 
L 1016 0 
L 438 0 
L 438 3381 
L 1000 3381 
L 1009 2991 
Q 1294 3444 1816 3444 
Q 1984 3444 2072 3400 
L 2072 2863 
z
" transform="scale(0.015625)"/>
      <path id="Roboto-Regular-69" d="M 1066 0 
L 488 0 
L 488 3381 
L 1066 3381 
L 1066 0 
z
M 441 4278 
Q 441 4419 527 4516 
Q 613 4613 781 4613 
Q 950 4613 1037 4516 
Q 1125 4419 1125 4278 
Q 1125 4138 1037 4044 
Q 950 3950 781 3950 
Q 613 3950 527 4044 
Q 441 4138 441 4278 
z
" transform="scale(0.015625)"/>
      <path id="Roboto-Regular-67" d="M 300 1719 
Q 300 2509 665 2976 
Q 1031 3444 1634 3444 
Q 2253 3444 2600 3006 
L 2628 3381 
L 3156 3381 
L 3156 81 
Q 3156 -575 2767 -953 
Q 2378 -1331 1722 -1331 
Q 1356 -1331 1006 -1175 
Q 656 -1019 472 -747 
L 772 -400 
Q 1144 -859 1681 -859 
Q 2103 -859 2339 -621 
Q 2575 -384 2575 47 
L 2575 338 
Q 2228 -63 1628 -63 
Q 1034 -63 667 415 
Q 300 894 300 1719 
z
M 881 1653 
Q 881 1081 1115 754 
Q 1350 428 1772 428 
Q 2319 428 2575 925 
L 2575 2469 
Q 2309 2953 1778 2953 
Q 1356 2953 1118 2625 
Q 881 2297 881 1653 
z
" transform="scale(0.015625)"/>
      <path id="Roboto-Regular-6e" d="M 984 3381 
L 1003 2956 
Q 1391 3444 2016 3444 
Q 3088 3444 3097 2234 
L 3097 0 
L 2519 0 
L 2519 2238 
Q 2516 2603 2352 2778 
Q 2188 2953 1841 2953 
Q 1559 2953 1346 2803 
Q 1134 2653 1016 2409 
L 1016 0 
L 438 0 
L 438 3381 
L 984 3381 
z
" transform="scale(0.015625)"/>
      <path id="Roboto-Regular-61" d="M 2525 0 
Q 2475 100 2444 356 
Q 2041 -63 1481 -63 
Q 981 -63 661 220 
Q 341 503 341 938 
Q 341 1466 742 1758 
Q 1144 2050 1872 2050 
L 2434 2050 
L 2434 2316 
Q 2434 2619 2253 2798 
Q 2072 2978 1719 2978 
Q 1409 2978 1200 2822 
Q 991 2666 991 2444 
L 409 2444 
Q 409 2697 589 2933 
Q 769 3169 1076 3306 
Q 1384 3444 1753 3444 
Q 2338 3444 2669 3151 
Q 3000 2859 3013 2347 
L 3013 791 
Q 3013 325 3131 50 
L 3131 0 
L 2525 0 
z
M 1566 441 
Q 1838 441 2081 581 
Q 2325 722 2434 947 
L 2434 1641 
L 1981 1641 
Q 919 1641 919 1019 
Q 919 747 1100 594 
Q 1281 441 1566 441 
z
" transform="scale(0.015625)"/>
      <path id="Roboto-Regular-6c" d="M 1066 0 
L 488 0 
L 488 4800 
L 1066 4800 
L 1066 0 
z
" transform="scale(0.015625)"/>
      <path id="Roboto-Regular-20" transform="scale(0.015625)"/>
      <path id="Roboto-Regular-75" d="M 2525 334 
Q 2188 -63 1534 -63 
Q 994 -63 711 251 
Q 428 566 425 1181 
L 425 3381 
L 1003 3381 
L 1003 1197 
Q 1003 428 1628 428 
Q 2291 428 2509 922 
L 2509 3381 
L 3088 3381 
L 3088 0 
L 2538 0 
L 2525 334 
z
" transform="scale(0.015625)"/>
      <path id="Roboto-Regular-63" d="M 1794 409 
Q 2103 409 2334 596 
Q 2566 784 2591 1066 
L 3138 1066 
Q 3122 775 2937 512 
Q 2753 250 2445 93 
Q 2138 -63 1794 -63 
Q 1103 -63 695 398 
Q 288 859 288 1659 
L 288 1756 
Q 288 2250 469 2634 
Q 650 3019 989 3231 
Q 1328 3444 1791 3444 
Q 2359 3444 2736 3103 
Q 3113 2763 3138 2219 
L 2591 2219 
Q 2566 2547 2342 2758 
Q 2119 2969 1791 2969 
Q 1350 2969 1108 2651 
Q 866 2334 866 1734 
L 866 1625 
Q 866 1041 1106 725 
Q 1347 409 1794 409 
z
" transform="scale(0.015625)"/>
      <path id="Roboto-Regular-65" d="M 1841 -63 
Q 1153 -63 722 389 
Q 291 841 291 1597 
L 291 1703 
Q 291 2206 483 2601 
Q 675 2997 1020 3220 
Q 1366 3444 1769 3444 
Q 2428 3444 2793 3009 
Q 3159 2575 3159 1766 
L 3159 1525 
L 869 1525 
Q 881 1025 1161 717 
Q 1441 409 1872 409 
Q 2178 409 2390 534 
Q 2603 659 2763 866 
L 3116 591 
Q 2691 -63 1841 -63 
z
M 1769 2969 
Q 1419 2969 1181 2714 
Q 944 2459 888 2000 
L 2581 2000 
L 2581 2044 
Q 2556 2484 2343 2726 
Q 2131 2969 1769 2969 
z
" transform="scale(0.015625)"/>
      <path id="Roboto-Regular-74" d="M 1222 4200 
L 1222 3381 
L 1853 3381 
L 1853 2934 
L 1222 2934 
L 1222 838 
Q 1222 634 1306 532 
Q 1391 431 1594 431 
Q 1694 431 1869 469 
L 1869 0 
Q 1641 -63 1425 -63 
Q 1038 -63 841 171 
Q 644 406 644 838 
L 644 2934 
L 28 2934 
L 28 3381 
L 644 3381 
L 644 4200 
L 1222 4200 
z
" transform="scale(0.015625)"/>
      <path id="Roboto-Regular-79" d="M 1544 847 
L 2331 3381 
L 2950 3381 
L 1591 -522 
Q 1275 -1366 588 -1366 
L 478 -1356 
L 263 -1316 
L 263 -847 
L 419 -859 
Q 713 -859 877 -740 
Q 1041 -622 1147 -306 
L 1275 38 
L 69 3381 
L 700 3381 
L 1544 847 
z
" transform="scale(0.015625)"/>
     </defs>
     <use xlink:href="#Roboto-Regular-4f"/>
     <use xlink:href="#Roboto-Regular-72" x="68.75"/>
     <use xlink:href="#Roboto-Regular-69" x="102.587891"/>
     <use xlink:href="#Roboto-Regular-67" x="126.855469"/>
     <use xlink:href="#Roboto-Regular-69" x="182.958984"/>
     <use xlink:href="#Roboto-Regular-6e" x="207.226562"/>
     <use xlink:href="#Roboto-Regular-61" x="262.402344"/>
     <use xlink:href="#Roboto-Regular-6c" x="316.796875"/>
     <use xlink:href="#Roboto-Regular-20" x="341.064453"/>
     <use xlink:href="#Roboto-Regular-75" x="365.820312"/>
     <use xlink:href="#Roboto-Regular-6e" x="420.947266"/>
     <use xlink:href="#Roboto-Regular-63" x="476.123047"/>
     <use xlink:href="#Roboto-Regular-65" x="528.466797"/>
     <use xlink:href="#Roboto-Regular-72" x="581.445312"/>
     <use xlink:href="#Roboto-Regular-74" x="615.283203"/>
     <use xlink:href="#Roboto-Regular-61" x="647.949219"/>
     <use xlink:href="#Roboto-Regular-69" x="702.34375"/>
     <use xlink:href="#Roboto-Regular-6e" x="726.611328"/>
     <use xlink:href="#Roboto-Regular-74" x="781.787109"/>
     <use xlink:href="#Roboto-Regular-79" x="814.453125"/>
    </g>
   </g>
  </g>
  <g id="axes_2">
   <g id="patch_4">
    <path d="M 20.409449 73.84252 
L 247.464567 73.84252 
L 247.464567 34.15748 
L 20.409449 34.15748 
L 20.409449 73.84252 
z
" style="fill: none; opacity: 0"/>
   </g>
   <g id="PolyCollection_2">
    <defs>
     <path id="maa6c0a8aa6" d="M 81.227784 -138.874251 
L 81.227784 -139.020272 
L 83.070764 -139.092694 
L 84.913744 -139.150316 
L 86.756724 -139.17425 
L 88.599703 -139.160745 
L 90.442683 -139.124534 
L 92.285663 -139.095982 
L 94.128643 -139.11367 
L 95.971623 -139.209612 
L 97.814603 -139.389224 
L 99.657583 -139.621195 
L 101.500562 -139.855377 
L 103.343542 -140.062106 
L 105.186522 -140.254102 
L 107.029502 -140.462808 
L 108.872482 -140.696471 
L 110.715462 -140.933644 
L 112.558442 -141.158309 
L 114.401421 -141.389038 
L 116.244401 -141.672746 
L 118.087381 -142.062837 
L 119.930361 -142.60235 
L 121.773341 -143.307406 
L 123.616321 -144.153435 
L 125.459301 -145.084778 
L 127.30228 -146.052605 
L 129.14526 -147.05105 
L 130.98824 -148.108579 
L 132.83122 -149.229721 
L 134.6742 -150.354355 
L 136.51718 -151.409196 
L 138.36016 -152.413249 
L 140.203139 -153.500431 
L 142.046119 -154.79814 
L 143.889099 -156.280134 
L 145.732079 -157.768912 
L 147.575059 -159.106385 
L 149.418039 -160.318272 
L 151.261019 -161.602645 
L 153.103998 -163.165098 
L 154.946978 -165.06575 
L 156.789958 -167.194965 
L 158.632938 -169.357697 
L 160.475918 -171.373204 
L 162.318898 -173.112697 
L 164.161877 -174.466609 
L 166.004857 -175.321264 
L 167.847837 -175.634013 
L 169.690817 -175.557711 
L 171.533797 -175.436932 
L 173.376777 -175.603574 
L 175.219757 -176.148261 
L 177.062736 -176.896429 
L 178.905716 -177.587153 
L 180.748696 -178.054723 
L 182.591676 -178.278961 
L 184.434656 -178.3226 
L 186.277636 -178.211124 
L 188.120616 -177.830152 
L 189.963595 -176.96509 
L 191.806575 -175.502778 
L 193.649555 -173.590456 
L 195.492535 -171.546445 
L 197.335515 -169.606024 
L 199.178495 -167.776535 
L 201.021475 -165.918443 
L 202.864454 -163.919148 
L 204.707434 -161.789914 
L 206.550414 -159.636781 
L 208.393394 -157.564087 
L 210.236374 -155.613224 
L 212.079354 -153.787975 
L 213.922334 -152.107028 
L 215.765313 -150.600718 
L 217.608293 -149.259905 
L 219.451273 -148.006989 
L 221.294253 -146.728512 
L 223.137233 -145.351946 
L 224.980213 -143.911902 
L 226.823193 -142.547148 
L 228.666172 -141.42045 
L 230.509152 -140.62358 
L 232.352132 -140.13875 
L 234.195112 -139.869805 
L 236.038092 -139.705113 
L 237.881072 -139.56723 
L 239.724052 -139.426514 
L 241.567031 -139.285838 
L 243.410011 -139.158864 
L 245.252991 -139.056337 
L 247.095971 -138.981665 
L 248.938951 -138.932186 
L 250.781931 -138.902366 
L 252.624911 -138.886262 
L 254.46789 -138.878665 
L 256.31087 -138.875619 
L 258.15385 -138.874602 
L 259.99683 -138.874325 
L 261.83981 -138.874263 
L 263.68279 -138.874252 
L 263.68279 -138.874251 
L 263.68279 -138.874251 
L 261.83981 -138.874251 
L 259.99683 -138.874251 
L 258.15385 -138.874251 
L 256.31087 -138.874251 
L 254.46789 -138.874251 
L 252.624911 -138.874251 
L 250.781931 -138.874251 
L 248.938951 -138.874251 
L 247.095971 -138.874251 
L 245.252991 -138.874251 
L 243.410011 -138.874251 
L 241.567031 -138.874251 
L 239.724052 -138.874251 
L 237.881072 -138.874251 
L 236.038092 -138.874251 
L 234.195112 -138.874251 
L 232.352132 -138.874251 
L 230.509152 -138.874251 
L 228.666172 -138.874251 
L 226.823193 -138.874251 
L 224.980213 -138.874251 
L 223.137233 -138.874251 
L 221.294253 -138.874251 
L 219.451273 -138.874251 
L 217.608293 -138.874251 
L 215.765313 -138.874251 
L 213.922334 -138.874251 
L 212.079354 -138.874251 
L 210.236374 -138.874251 
L 208.393394 -138.874251 
L 206.550414 -138.874251 
L 204.707434 -138.874251 
L 202.864454 -138.874251 
L 201.021475 -138.874251 
L 199.178495 -138.874251 
L 197.335515 -138.874251 
L 195.492535 -138.874251 
L 193.649555 -138.874251 
L 191.806575 -138.874251 
L 189.963595 -138.874251 
L 188.120616 -138.874251 
L 186.277636 -138.874251 
L 184.434656 -138.874251 
L 182.591676 -138.874251 
L 180.748696 -138.874251 
L 178.905716 -138.874251 
L 177.062736 -138.874251 
L 175.219757 -138.874251 
L 173.376777 -138.874251 
L 171.533797 -138.874251 
L 169.690817 -138.874251 
L 167.847837 -138.874251 
L 166.004857 -138.874251 
L 164.161877 -138.874251 
L 162.318898 -138.874251 
L 160.475918 -138.874251 
L 158.632938 -138.874251 
L 156.789958 -138.874251 
L 154.946978 -138.874251 
L 153.103998 -138.874251 
L 151.261019 -138.874251 
L 149.418039 -138.874251 
L 147.575059 -138.874251 
L 145.732079 -138.874251 
L 143.889099 -138.874251 
L 142.046119 -138.874251 
L 140.203139 -138.874251 
L 138.36016 -138.874251 
L 136.51718 -138.874251 
L 134.6742 -138.874251 
L 132.83122 -138.874251 
L 130.98824 -138.874251 
L 129.14526 -138.874251 
L 127.30228 -138.874251 
L 125.459301 -138.874251 
L 123.616321 -138.874251 
L 121.773341 -138.874251 
L 119.930361 -138.874251 
L 118.087381 -138.874251 
L 116.244401 -138.874251 
L 114.401421 -138.874251 
L 112.558442 -138.874251 
L 110.715462 -138.874251 
L 108.872482 -138.874251 
L 107.029502 -138.874251 
L 105.186522 -138.874251 
L 103.343542 -138.874251 
L 101.500562 -138.874251 
L 99.657583 -138.874251 
L 97.814603 -138.874251 
L 95.971623 -138.874251 
L 94.128643 -138.874251 
L 92.285663 -138.874251 
L 90.442683 -138.874251 
L 88.599703 -138.874251 
L 86.756724 -138.874251 
L 84.913744 -138.874251 
L 83.070764 -138.874251 
L 81.227784 -138.874251 
z
"/>
    </defs>
    <g clip-path="url(#p91b1d14dd9)">
     <use xlink:href="#maa6c0a8aa6" x="0" y="212.598425" style="fill: #fabdbd"/>
    </g>
   </g>
   <g id="line2d_2">
    <path d="M 81.227784 73.578153 
L 83.070764 73.505731 
L 84.913744 73.448109 
L 86.756724 73.424175 
L 88.599703 73.43768 
L 90.442683 73.473892 
L 92.285663 73.502443 
L 94.128643 73.484755 
L 95.971623 73.388813 
L 97.814603 73.209201 
L 99.657583 72.977231 
L 101.500562 72.743049 
L 103.343542 72.53632 
L 105.186522 72.344323 
L 107.029502 72.135617 
L 108.872482 71.901954 
L 110.715462 71.664781 
L 112.558442 71.440116 
L 114.401421 71.209387 
L 116.244401 70.925679 
L 118.087381 70.535588 
L 119.930361 69.996075 
L 121.773341 69.291019 
L 123.616321 68.444991 
L 125.459301 67.513647 
L 127.30228 66.54582 
L 129.14526 65.547376 
L 130.98824 64.489846 
L 132.83122 63.368704 
L 134.6742 62.244071 
L 136.51718 61.189229 
L 138.36016 60.185176 
L 140.203139 59.097995 
L 142.046119 57.800285 
L 143.889099 56.318291 
L 145.732079 54.829513 
L 147.575059 53.492041 
L 149.418039 52.280153 
L 151.261019 50.995781 
L 153.103998 49.433327 
L 154.946978 47.532675 
L 156.789958 45.40346 
L 158.632938 43.240728 
L 160.475918 41.225221 
L 162.318898 39.485728 
L 164.161877 38.131817 
L 166.004857 37.277162 
L 167.847837 36.964412 
L 169.690817 37.040715 
L 171.533797 37.161493 
L 173.376777 36.994851 
L 175.219757 36.450164 
L 177.062736 35.701997 
L 178.905716 35.011273 
L 180.748696 34.543702 
L 182.591676 34.319464 
L 184.434656 34.275825 
L 186.277636 34.387301 
L 188.120616 34.768273 
L 189.963595 35.633335 
L 191.806575 37.095648 
L 193.649555 39.007969 
L 195.492535 41.05198 
L 197.335515 42.992401 
L 199.178495 44.821891 
L 201.021475 46.679982 
L 202.864454 48.679277 
L 204.707434 50.808511 
L 206.550414 52.961645 
L 208.393394 55.034338 
L 210.236374 56.985201 
L 212.079354 58.81045 
L 213.922334 60.491397 
L 215.765313 61.997707 
L 217.608293 63.33852 
L 219.451273 64.591436 
L 221.294253 65.869913 
L 223.137233 67.246479 
L 224.980213 68.686523 
L 226.823193 70.051277 
L 228.666172 71.177975 
L 230.509152 71.974845 
L 232.352132 72.459675 
L 234.195112 72.72862 
L 236.038092 72.893312 
L 237.881072 73.031195 
L 239.724052 73.171911 
L 241.567031 73.312587 
L 243.410011 73.439561 
L 245.252991 73.542088 
L 247.095971 73.61676 
L 248.938951 73.66624 
L 250.781931 73.696059 
L 252.624911 73.712163 
L 254.46789 73.71976 
L 256.11811 73.722488 
" clip-path="url(#p91b1d14dd9)" style="fill: none; stroke: #ffffff; stroke-width: 0.75; stroke-linecap: square"/>
   </g>
   <g id="patch_5">
    <path d="M 20.409449 73.84252 
L 247.464567 73.84252 
" style="fill: none; stroke: #ced4da; stroke-width: 0.5; stroke-linejoin: miter; stroke-linecap: square"/>
   </g>
   <g id="matplotlib.axis_3">
    <g id="xtick_33"/>
    <g id="xtick_34"/>
    <g id="xtick_35"/>
    <g id="xtick_36"/>
    <g id="xtick_37"/>
    <g id="xtick_38"/>
    <g id="xtick_39"/>
    <g id="xtick_40"/>
    <g id="xtick_41"/>
    <g id="xtick_42"/>
    <g id="xtick_43"/>
    <g id="xtick_44"/>
    <g id="xtick_45"/>
    <g id="xtick_46"/>
    <g id="xtick_47"/>
    <g id="xtick_48"/>
    <g id="xtick_49"/>
    <g id="xtick_50"/>
    <g id="xtick_51"/>
    <g id="xtick_52"/>
    <g id="xtick_53"/>
    <g id="xtick_54"/>
    <g id="xtick_55"/>
    <g id="xtick_56"/>
    <g id="xtick_57"/>
    <g id="xtick_58"/>
    <g id="xtick_59"/>
    <g id="xtick_60"/>
    <g id="xtick_61"/>
    <g id="xtick_62"/>
    <g id="xtick_63"/>
    <g id="xtick_64"/>
   </g>
   <g id="matplotlib.axis_4"/>
   <g id="text_2">
    <!-- Reduced $r_b$ -->
    <g transform="translate(20.409449 71.420645) scale(0.07 -0.07)">
     <defs>
      <path id="Roboto-Regular-52" d="M 2197 1841 
L 1128 1841 
L 1128 0 
L 525 0 
L 525 4550 
L 2031 4550 
Q 2800 4550 3214 4200 
Q 3628 3850 3628 3181 
Q 3628 2756 3398 2440 
Q 3169 2125 2759 1969 
L 3828 38 
L 3828 0 
L 3184 0 
L 2197 1841 
z
M 1128 2331 
L 2050 2331 
Q 2497 2331 2761 2562 
Q 3025 2794 3025 3181 
Q 3025 3603 2773 3828 
Q 2522 4053 2047 4056 
L 1128 4056 
L 1128 2331 
z
" transform="scale(0.015625)"/>
      <path id="Roboto-Regular-64" d="M 297 1719 
Q 297 2497 665 2970 
Q 1034 3444 1631 3444 
Q 2225 3444 2572 3038 
L 2572 4800 
L 3150 4800 
L 3150 0 
L 2619 0 
L 2591 363 
Q 2244 -63 1625 -63 
Q 1038 -63 667 418 
Q 297 900 297 1675 
L 297 1719 
z
M 875 1653 
Q 875 1078 1112 753 
Q 1350 428 1769 428 
Q 2319 428 2572 922 
L 2572 2475 
Q 2313 2953 1775 2953 
Q 1350 2953 1112 2625 
Q 875 2297 875 1653 
z
" transform="scale(0.015625)"/>
      <path id="DejaVuSans-Oblique-72" d="M 2853 2969 
Q 2766 3016 2653 3041 
Q 2541 3066 2413 3066 
Q 1953 3066 1609 2717 
Q 1266 2369 1153 1784 
L 800 0 
L 225 0 
L 909 3500 
L 1484 3500 
L 1375 2956 
Q 1603 3259 1920 3421 
Q 2238 3584 2597 3584 
Q 2691 3584 2781 3573 
Q 2872 3563 2963 3538 
L 2853 2969 
z
" transform="scale(0.015625)"/>
      <path id="DejaVuSans-Oblique-62" d="M 3169 2138 
Q 3169 2591 2961 2847 
Q 2753 3103 2388 3103 
Q 2122 3103 1889 2973 
Q 1656 2844 1484 2597 
Q 1303 2338 1198 1995 
Q 1094 1653 1094 1313 
Q 1094 881 1298 636 
Q 1503 391 1863 391 
Q 2134 391 2365 517 
Q 2597 644 2772 891 
Q 2950 1147 3059 1487 
Q 3169 1828 3169 2138 
z
M 1381 2969 
Q 1594 3256 1914 3420 
Q 2234 3584 2584 3584 
Q 3122 3584 3439 3221 
Q 3756 2859 3756 2241 
Q 3756 1734 3570 1259 
Q 3384 784 3041 416 
Q 2816 172 2522 40 
Q 2228 -91 1906 -91 
Q 1566 -91 1316 65 
Q 1066 222 909 531 
L 806 0 
L 231 0 
L 1178 4863 
L 1753 4863 
L 1381 2969 
z
" transform="scale(0.015625)"/>
     </defs>
     <use xlink:href="#Roboto-Regular-52"/>
     <use xlink:href="#Roboto-Regular-65" transform="translate(61.572266 0)"/>
     <use xlink:href="#Roboto-Regular-64" transform="translate(114.550781 0)"/>
     <use xlink:href="#Roboto-Regular-75" transform="translate(170.947266 0)"/>
     <use xlink:href="#Roboto-Regular-63" transform="translate(226.074219 0)"/>
     <use xlink:href="#Roboto-Regular-65" transform="translate(278.417969 0)"/>
     <use xlink:href="#Roboto-Regular-64" transform="translate(331.396484 0)"/>
     <use xlink:href="#Roboto-Regular-20" transform="translate(387.792969 0)"/>
     <use xlink:href="#DejaVuSans-Oblique-72" transform="translate(412.548828 0)"/>
     <use xlink:href="#DejaVuSans-Oblique-62" transform="translate(453.662109 -16.40625) scale(0.7)"/>
    </g>
   </g>
  </g>
  <g id="axes_3">
   <g id="patch_6">
    <path d="M 20.409449 101.622047 
L 247.464567 101.622047 
L 247.464567 61.937008 
L 20.409449 61.937008 
L 20.409449 101.622047 
z
" style="fill: none; opacity: 0"/>
   </g>
   <g id="PolyCollection_3">
    <defs>
     <path id="m8ae86cb49f" d="M 81.227784 -111.094723 
L 81.227784 -111.209175 
L 83.070764 -111.280106 
L 84.913744 -111.344595 
L 86.756724 -111.381639 
L 88.599703 -111.383559 
L 90.442683 -111.35992 
L 92.285663 -111.33539 
L 94.128643 -111.346983 
L 95.971623 -111.43379 
L 97.814603 -111.613341 
L 99.657583 -111.860344 
L 101.500562 -112.117769 
L 103.343542 -112.343191 
L 105.186522 -112.543523 
L 107.029502 -112.75491 
L 108.872482 -112.995873 
L 110.715462 -113.256876 
L 112.558442 -113.530483 
L 114.401421 -113.832001 
L 116.244401 -114.193747 
L 118.087381 -114.657862 
L 119.930361 -115.26968 
L 121.773341 -116.054761 
L 123.616321 -116.993295 
L 125.459301 -118.024035 
L 127.30228 -119.087471 
L 129.14526 -120.177163 
L 130.98824 -121.334331 
L 132.83122 -122.567935 
L 134.6742 -123.806288 
L 136.51718 -124.979728 
L 138.36016 -126.136175 
L 140.203139 -127.412014 
L 142.046119 -128.881935 
L 143.889099 -130.479531 
L 145.732079 -132.071458 
L 147.575059 -133.588609 
L 149.418039 -135.092314 
L 151.261019 -136.719633 
L 153.103998 -138.540453 
L 154.946978 -140.46319 
L 156.789958 -142.30268 
L 158.632938 -143.933355 
L 160.475918 -145.351201 
L 162.318898 -146.59553 
L 164.161877 -147.644247 
L 166.004857 -148.414583 
L 167.847837 -148.875779 
L 169.690817 -149.139283 
L 171.533797 -149.401983 
L 173.376777 -149.779 
L 175.219757 -150.196641 
L 177.062736 -150.477458 
L 178.905716 -150.543072 
L 180.748696 -150.494751 
L 182.591676 -150.451354 
L 184.434656 -150.326542 
L 186.277636 -149.821296 
L 188.120616 -148.66397 
L 189.963595 -146.857269 
L 191.806575 -144.694993 
L 193.649555 -142.543337 
L 195.492535 -140.585497 
L 197.335515 -138.733707 
L 199.178495 -136.759873 
L 201.021475 -134.533113 
L 202.864454 -132.166843 
L 204.707434 -129.930544 
L 206.550414 -128.00053 
L 208.393394 -126.312032 
L 210.236374 -124.671023 
L 212.079354 -122.985664 
L 213.922334 -121.349558 
L 215.765313 -119.901318 
L 217.608293 -118.651092 
L 219.451273 -117.479298 
L 221.294253 -116.283243 
L 223.137233 -115.086402 
L 224.980213 -114.008295 
L 226.823193 -113.159125 
L 228.666172 -112.568827 
L 230.509152 -112.190891 
L 232.352132 -111.949816 
L 234.195112 -111.782486 
L 236.038092 -111.649492 
L 237.881072 -111.52858 
L 239.724052 -111.411072 
L 241.567031 -111.301952 
L 243.410011 -111.213286 
L 245.252991 -111.152885 
L 247.095971 -111.118895 
L 248.938951 -111.103157 
L 250.781931 -111.097173 
L 252.624911 -111.095311 
L 254.46789 -111.094839 
L 256.31087 -111.094741 
L 258.15385 -111.094725 
L 259.99683 -111.094723 
L 261.83981 -111.094723 
L 263.68279 -111.094723 
L 263.68279 -111.094723 
L 263.68279 -111.094723 
L 261.83981 -111.094723 
L 259.99683 -111.094723 
L 258.15385 -111.094723 
L 256.31087 -111.094723 
L 254.46789 -111.094723 
L 252.624911 -111.094723 
L 250.781931 -111.094723 
L 248.938951 -111.094723 
L 247.095971 -111.094723 
L 245.252991 -111.094723 
L 243.410011 -111.094723 
L 241.567031 -111.094723 
L 239.724052 -111.094723 
L 237.881072 -111.094723 
L 236.038092 -111.094723 
L 234.195112 -111.094723 
L 232.352132 -111.094723 
L 230.509152 -111.094723 
L 228.666172 -111.094723 
L 226.823193 -111.094723 
L 224.980213 -111.094723 
L 223.137233 -111.094723 
L 221.294253 -111.094723 
L 219.451273 -111.094723 
L 217.608293 -111.094723 
L 215.765313 -111.094723 
L 213.922334 -111.094723 
L 212.079354 -111.094723 
L 210.236374 -111.094723 
L 208.393394 -111.094723 
L 206.550414 -111.094723 
L 204.707434 -111.094723 
L 202.864454 -111.094723 
L 201.021475 -111.094723 
L 199.178495 -111.094723 
L 197.335515 -111.094723 
L 195.492535 -111.094723 
L 193.649555 -111.094723 
L 191.806575 -111.094723 
L 189.963595 -111.094723 
L 188.120616 -111.094723 
L 186.277636 -111.094723 
L 184.434656 -111.094723 
L 182.591676 -111.094723 
L 180.748696 -111.094723 
L 178.905716 -111.094723 
L 177.062736 -111.094723 
L 175.219757 -111.094723 
L 173.376777 -111.094723 
L 171.533797 -111.094723 
L 169.690817 -111.094723 
L 167.847837 -111.094723 
L 166.004857 -111.094723 
L 164.161877 -111.094723 
L 162.318898 -111.094723 
L 160.475918 -111.094723 
L 158.632938 -111.094723 
L 156.789958 -111.094723 
L 154.946978 -111.094723 
L 153.103998 -111.094723 
L 151.261019 -111.094723 
L 149.418039 -111.094723 
L 147.575059 -111.094723 
L 145.732079 -111.094723 
L 143.889099 -111.094723 
L 142.046119 -111.094723 
L 140.203139 -111.094723 
L 138.36016 -111.094723 
L 136.51718 -111.094723 
L 134.6742 -111.094723 
L 132.83122 -111.094723 
L 130.98824 -111.094723 
L 129.14526 -111.094723 
L 127.30228 -111.094723 
L 125.459301 -111.094723 
L 123.616321 -111.094723 
L 121.773341 -111.094723 
L 119.930361 -111.094723 
L 118.087381 -111.094723 
L 116.244401 -111.094723 
L 114.401421 -111.094723 
L 112.558442 -111.094723 
L 110.715462 -111.094723 
L 108.872482 -111.094723 
L 107.029502 -111.094723 
L 105.186522 -111.094723 
L 103.343542 -111.094723 
L 101.500562 -111.094723 
L 99.657583 -111.094723 
L 97.814603 -111.094723 
L 95.971623 -111.094723 
L 94.128643 -111.094723 
L 92.285663 -111.094723 
L 90.442683 -111.094723 
L 88.599703 -111.094723 
L 86.756724 -111.094723 
L 84.913744 -111.094723 
L 83.070764 -111.094723 
L 81.227784 -111.094723 
z
"/>
    </defs>
    <g clip-path="url(#p3a94a5f667)">
     <use xlink:href="#m8ae86cb49f" x="0" y="212.598425" style="fill: #f8a2a2"/>
    </g>
   </g>
   <g id="line2d_3">
    <path d="M 81.227784 101.38925 
L 83.070764 101.318319 
L 84.913744 101.253831 
L 86.756724 101.216786 
L 88.599703 101.214866 
L 90.442683 101.238506 
L 92.285663 101.263036 
L 94.128643 101.251442 
L 95.971623 101.164635 
L 97.814603 100.985084 
L 99.657583 100.738081 
L 101.500562 100.480657 
L 103.343542 100.255234 
L 105.186522 100.054902 
L 107.029502 99.843516 
L 108.872482 99.602553 
L 110.715462 99.341549 
L 112.558442 99.067942 
L 114.401421 98.766424 
L 116.244401 98.404678 
L 118.087381 97.940563 
L 119.930361 97.328745 
L 121.773341 96.543664 
L 123.616321 95.605131 
L 125.459301 94.57439 
L 127.30228 93.510954 
L 129.14526 92.421262 
L 130.98824 91.264094 
L 132.83122 90.030491 
L 134.6742 88.792137 
L 136.51718 87.618697 
L 138.36016 86.46225 
L 140.203139 85.186411 
L 142.046119 83.716491 
L 143.889099 82.118894 
L 145.732079 80.526967 
L 147.575059 79.009816 
L 149.418039 77.506111 
L 151.261019 75.878793 
L 153.103998 74.057972 
L 154.946978 72.135235 
L 156.789958 70.295745 
L 158.632938 68.66507 
L 160.475918 67.247224 
L 162.318898 66.002895 
L 164.161877 64.954179 
L 166.004857 64.183842 
L 167.847837 63.722646 
L 169.690817 63.459143 
L 171.533797 63.196442 
L 173.376777 62.819425 
L 175.219757 62.401784 
L 177.062736 62.120967 
L 178.905716 62.055353 
L 180.748696 62.103674 
L 182.591676 62.147072 
L 184.434656 62.271883 
L 186.277636 62.777129 
L 188.120616 63.934455 
L 189.963595 65.741156 
L 191.806575 67.903432 
L 193.649555 70.055088 
L 195.492535 72.012928 
L 197.335515 73.864718 
L 199.178495 75.838552 
L 201.021475 78.065312 
L 202.864454 80.431582 
L 204.707434 82.667881 
L 206.550414 84.597895 
L 208.393394 86.286393 
L 210.236374 87.927402 
L 212.079354 89.612761 
L 213.922334 91.248867 
L 215.765313 92.697108 
L 217.608293 93.947333 
L 219.451273 95.119127 
L 221.294253 96.315182 
L 223.137233 97.512023 
L 224.980213 98.59013 
L 226.823193 99.4393 
L 228.666172 100.029599 
L 230.509152 100.407534 
L 232.352132 100.648609 
L 234.195112 100.815939 
L 236.038092 100.948933 
L 237.881072 101.069846 
L 239.724052 101.187353 
L 241.567031 101.296473 
L 243.410011 101.385139 
L 245.252991 101.44554 
L 247.095971 101.479531 
L 248.938951 101.495269 
L 250.781931 101.501252 
L 252.624911 101.503114 
L 254.46789 101.503587 
L 256.11811 101.503674 
" clip-path="url(#p3a94a5f667)" style="fill: none; stroke: #ffffff; stroke-width: 0.75; stroke-linecap: square"/>
   </g>
   <g id="patch_7">
    <path d="M 20.409449 101.622047 
L 247.464567 101.622047 
" style="fill: none; stroke: #ced4da; stroke-width: 0.5; stroke-linejoin: miter; stroke-linecap: square"/>
   </g>
   <g id="matplotlib.axis_5">
    <g id="xtick_65"/>
    <g id="xtick_66"/>
    <g id="xtick_67"/>
    <g id="xtick_68"/>
    <g id="xtick_69"/>
    <g id="xtick_70"/>
    <g id="xtick_71"/>
    <g id="xtick_72"/>
    <g id="xtick_73"/>
    <g id="xtick_74"/>
    <g id="xtick_75"/>
    <g id="xtick_76"/>
    <g id="xtick_77"/>
    <g id="xtick_78"/>
    <g id="xtick_79"/>
    <g id="xtick_80"/>
    <g id="xtick_81"/>
    <g id="xtick_82"/>
    <g id="xtick_83"/>
    <g id="xtick_84"/>
    <g id="xtick_85"/>
    <g id="xtick_86"/>
    <g id="xtick_87"/>
    <g id="xtick_88"/>
    <g id="xtick_89"/>
    <g id="xtick_90"/>
    <g id="xtick_91"/>
    <g id="xtick_92"/>
    <g id="xtick_93"/>
    <g id="xtick_94"/>
    <g id="xtick_95"/>
    <g id="xtick_96"/>
   </g>
   <g id="matplotlib.axis_6"/>
   <g id="text_3">
    <!-- Reduced $D$ -->
    <g transform="translate(20.409449 99.200172) scale(0.07 -0.07)">
     <defs>
      <path id="DejaVuSans-Oblique-44" d="M 1081 4666 
L 2438 4666 
Q 3519 4666 4070 4208 
Q 4622 3750 4622 2847 
Q 4622 2250 4412 1698 
Q 4203 1147 3834 769 
Q 3463 381 2891 190 
Q 2319 0 1538 0 
L 172 0 
L 1081 4666 
z
M 1613 4147 
L 909 519 
L 1734 519 
Q 2794 519 3375 1128 
Q 3956 1738 3956 2847 
Q 3956 3519 3581 3833 
Q 3206 4147 2406 4147 
L 1613 4147 
z
" transform="scale(0.015625)"/>
     </defs>
     <use xlink:href="#Roboto-Regular-52"/>
     <use xlink:href="#Roboto-Regular-65" transform="translate(61.572266 0)"/>
     <use xlink:href="#Roboto-Regular-64" transform="translate(114.550781 0)"/>
     <use xlink:href="#Roboto-Regular-75" transform="translate(170.947266 0)"/>
     <use xlink:href="#Roboto-Regular-63" transform="translate(226.074219 0)"/>
     <use xlink:href="#Roboto-Regular-65" transform="translate(278.417969 0)"/>
     <use xlink:href="#Roboto-Regular-64" transform="translate(331.396484 0)"/>
     <use xlink:href="#Roboto-Regular-20" transform="translate(387.792969 0)"/>
     <use xlink:href="#DejaVuSans-Oblique-44" transform="translate(412.548828 0)"/>
    </g>
   </g>
  </g>
  <g id="axes_4">
   <g id="patch_8">
    <path d="M 20.409449 129.401575 
L 247.464567 129.401575 
L 247.464567 89.716535 
L 20.409449 89.716535 
L 20.409449 129.401575 
z
" style="fill: none; opacity: 0"/>
   </g>
   <g id="PolyCollection_4">
    <defs>
     <path id="mef73be1bce" d="M 81.227784 -83.315195 
L 81.227784 -83.315197 
L 83.070764 -83.315215 
L 84.913744 -83.315349 
L 86.756724 -83.316052 
L 88.599703 -83.318564 
L 90.442683 -83.324569 
L 92.285663 -83.334014 
L 94.128643 -83.344584 
L 95.971623 -83.359274 
L 97.814603 -83.395 
L 99.657583 -83.47073 
L 101.500562 -83.575943 
L 103.343542 -83.662794 
L 105.186522 -83.690368 
L 107.029502 -83.668665 
L 108.872482 -83.642852 
L 110.715462 -83.652936 
L 112.558442 -83.722958 
L 114.401421 -83.876492 
L 116.244401 -84.148175 
L 118.087381 -84.555991 
L 119.930361 -85.057775 
L 121.773341 -85.560193 
L 123.616321 -85.971712 
L 125.459301 -86.263438 
L 127.30228 -86.508255 
L 129.14526 -86.830881 
L 130.98824 -87.324313 
L 132.83122 -88.035567 
L 134.6742 -88.944123 
L 136.51718 -89.94456 
L 138.36016 -90.983071 
L 140.203139 -92.165887 
L 142.046119 -93.592281 
L 143.889099 -95.205466 
L 145.732079 -96.933812 
L 147.575059 -98.802223 
L 149.418039 -100.783104 
L 151.261019 -102.670558 
L 153.103998 -104.241522 
L 154.946978 -105.577188 
L 156.789958 -107.12733 
L 158.632938 -109.279649 
L 160.475918 -111.885519 
L 162.318898 -114.398016 
L 164.161877 -116.42657 
L 166.004857 -117.991656 
L 167.847837 -119.373382 
L 169.690817 -120.793067 
L 171.533797 -122.086071 
L 173.376777 -122.763545 
L 175.219757 -122.553179 
L 177.062736 -121.79039 
L 178.905716 -121.107637 
L 180.748696 -120.708852 
L 182.591676 -120.198145 
L 184.434656 -119.176373 
L 186.277636 -117.603765 
L 188.120616 -115.594989 
L 189.963595 -113.266563 
L 191.806575 -110.716235 
L 193.649555 -108.013864 
L 195.492535 -105.307986 
L 197.335515 -102.806449 
L 199.178495 -100.536528 
L 201.021475 -98.317082 
L 202.864454 -96.060479 
L 204.707434 -93.944671 
L 206.550414 -92.20533 
L 208.393394 -90.869064 
L 210.236374 -89.763534 
L 212.079354 -88.704597 
L 213.922334 -87.634234 
L 215.765313 -86.631325 
L 217.608293 -85.798972 
L 219.451273 -85.157012 
L 221.294253 -84.669474 
L 223.137233 -84.317807 
L 224.980213 -84.089338 
L 226.823193 -83.936 
L 228.666172 -83.798156 
L 230.509152 -83.653303 
L 232.352132 -83.517717 
L 234.195112 -83.415152 
L 236.038092 -83.354432 
L 237.881072 -83.327061 
L 239.724052 -83.317891 
L 241.567031 -83.315648 
L 243.410011 -83.315251 
L 245.252991 -83.3152 
L 247.095971 -83.315196 
L 248.938951 -83.315195 
L 250.781931 -83.315195 
L 252.624911 -83.315195 
L 254.46789 -83.315195 
L 256.31087 -83.315195 
L 258.15385 -83.315195 
L 259.99683 -83.315195 
L 261.83981 -83.315195 
L 263.68279 -83.315195 
L 263.68279 -83.315195 
L 263.68279 -83.315195 
L 261.83981 -83.315195 
L 259.99683 -83.315195 
L 258.15385 -83.315195 
L 256.31087 -83.315195 
L 254.46789 -83.315195 
L 252.624911 -83.315195 
L 250.781931 -83.315195 
L 248.938951 -83.315195 
L 247.095971 -83.315195 
L 245.252991 -83.315195 
L 243.410011 -83.315195 
L 241.567031 -83.315195 
L 239.724052 -83.315195 
L 237.881072 -83.315195 
L 236.038092 -83.315195 
L 234.195112 -83.315195 
L 232.352132 -83.315195 
L 230.509152 -83.315195 
L 228.666172 -83.315195 
L 226.823193 -83.315195 
L 224.980213 -83.315195 
L 223.137233 -83.315195 
L 221.294253 -83.315195 
L 219.451273 -83.315195 
L 217.608293 -83.315195 
L 215.765313 -83.315195 
L 213.922334 -83.315195 
L 212.079354 -83.315195 
L 210.236374 -83.315195 
L 208.393394 -83.315195 
L 206.550414 -83.315195 
L 204.707434 -83.315195 
L 202.864454 -83.315195 
L 201.021475 -83.315195 
L 199.178495 -83.315195 
L 197.335515 -83.315195 
L 195.492535 -83.315195 
L 193.649555 -83.315195 
L 191.806575 -83.315195 
L 189.963595 -83.315195 
L 188.120616 -83.315195 
L 186.277636 -83.315195 
L 184.434656 -83.315195 
L 182.591676 -83.315195 
L 180.748696 -83.315195 
L 178.905716 -83.315195 
L 177.062736 -83.315195 
L 175.219757 -83.315195 
L 173.376777 -83.315195 
L 171.533797 -83.315195 
L 169.690817 -83.315195 
L 167.847837 -83.315195 
L 166.004857 -83.315195 
L 164.161877 -83.315195 
L 162.318898 -83.315195 
L 160.475918 -83.315195 
L 158.632938 -83.315195 
L 156.789958 -83.315195 
L 154.946978 -83.315195 
L 153.103998 -83.315195 
L 151.261019 -83.315195 
L 149.418039 -83.315195 
L 147.575059 -83.315195 
L 145.732079 -83.315195 
L 143.889099 -83.315195 
L 142.046119 -83.315195 
L 140.203139 -83.315195 
L 138.36016 -83.315195 
L 136.51718 -83.315195 
L 134.6742 -83.315195 
L 132.83122 -83.315195 
L 130.98824 -83.315195 
L 129.14526 -83.315195 
L 127.30228 -83.315195 
L 125.459301 -83.315195 
L 123.616321 -83.315195 
L 121.773341 -83.315195 
L 119.930361 -83.315195 
L 118.087381 -83.315195 
L 116.244401 -83.315195 
L 114.401421 -83.315195 
L 112.558442 -83.315195 
L 110.715462 -83.315195 
L 108.872482 -83.315195 
L 107.029502 -83.315195 
L 105.186522 -83.315195 
L 103.343542 -83.315195 
L 101.500562 -83.315195 
L 99.657583 -83.315195 
L 97.814603 -83.315195 
L 95.971623 -83.315195 
L 94.128643 -83.315195 
L 92.285663 -83.315195 
L 90.442683 -83.315195 
L 88.599703 -83.315195 
L 86.756724 -83.315195 
L 84.913744 -83.315195 
L 83.070764 -83.315195 
L 81.227784 -83.315195 
z
"/>
    </defs>
    <g clip-path="url(#p9b1294c13d)">
     <use xlink:href="#mef73be1bce" x="0" y="212.598425" style="fill: #f68787"/>
    </g>
   </g>
   <g id="line2d_4">
    <path d="M 81.227784 129.283228 
L 83.070764 129.28321 
L 84.913744 129.283077 
L 86.756724 129.282374 
L 88.599703 129.279861 
L 90.442683 129.273856 
L 92.285663 129.264411 
L 94.128643 129.253841 
L 95.971623 129.239152 
L 97.814603 129.203425 
L 99.657583 129.127695 
L 101.500562 129.022482 
L 103.343542 128.935631 
L 105.186522 128.908057 
L 107.029502 128.92976 
L 108.872482 128.955573 
L 110.715462 128.945489 
L 112.558442 128.875467 
L 114.401421 128.721933 
L 116.244401 128.450251 
L 118.087381 128.042434 
L 119.930361 127.54065 
L 121.773341 127.038232 
L 123.616321 126.626713 
L 125.459301 126.334988 
L 127.30228 126.09017 
L 129.14526 125.767544 
L 130.98824 125.274112 
L 132.83122 124.562859 
L 134.6742 123.654302 
L 136.51718 122.653865 
L 138.36016 121.615355 
L 140.203139 120.432538 
L 142.046119 119.006144 
L 143.889099 117.392959 
L 145.732079 115.664614 
L 147.575059 113.796202 
L 149.418039 111.815321 
L 151.261019 109.927868 
L 153.103998 108.356903 
L 154.946978 107.021237 
L 156.789958 105.471095 
L 158.632938 103.318776 
L 160.475918 100.712906 
L 162.318898 98.200409 
L 164.161877 96.171855 
L 166.004857 94.606769 
L 167.847837 93.225043 
L 169.690817 91.805358 
L 171.533797 90.512354 
L 173.376777 89.83488 
L 175.219757 90.045246 
L 177.062736 90.808035 
L 178.905716 91.490788 
L 180.748696 91.889573 
L 182.591676 92.40028 
L 184.434656 93.422052 
L 186.277636 94.994661 
L 188.120616 97.003436 
L 189.963595 99.331862 
L 191.806575 101.88219 
L 193.649555 104.584561 
L 195.492535 107.29044 
L 197.335515 109.791977 
L 199.178495 112.061897 
L 201.021475 114.281343 
L 202.864454 116.537946 
L 204.707434 118.653754 
L 206.550414 120.393095 
L 208.393394 121.729361 
L 210.236374 122.834891 
L 212.079354 123.893828 
L 213.922334 124.964191 
L 215.765313 125.9671 
L 217.608293 126.799453 
L 219.451273 127.441413 
L 221.294253 127.928951 
L 223.137233 128.280618 
L 224.980213 128.509087 
L 226.823193 128.662425 
L 228.666172 128.800269 
L 230.509152 128.945122 
L 232.352132 129.080708 
L 234.195112 129.183273 
L 236.038092 129.243993 
L 237.881072 129.271364 
L 239.724052 129.280534 
L 241.567031 129.282778 
L 243.410011 129.283174 
L 245.252991 129.283225 
L 247.095971 129.283229 
L 248.938951 129.28323 
L 250.781931 129.28323 
L 252.624911 129.28323 
L 254.46789 129.28323 
L 256.11811 129.28323 
" clip-path="url(#p9b1294c13d)" style="fill: none; stroke: #ffffff; stroke-width: 0.75; stroke-linecap: square"/>
   </g>
   <g id="patch_9">
    <path d="M 20.409449 129.401575 
L 247.464567 129.401575 
" style="fill: none; stroke: #ced4da; stroke-width: 0.5; stroke-linejoin: miter; stroke-linecap: square"/>
   </g>
   <g id="matplotlib.axis_7">
    <g id="xtick_97"/>
    <g id="xtick_98"/>
    <g id="xtick_99"/>
    <g id="xtick_100"/>
    <g id="xtick_101"/>
    <g id="xtick_102"/>
    <g id="xtick_103"/>
    <g id="xtick_104"/>
    <g id="xtick_105"/>
    <g id="xtick_106"/>
    <g id="xtick_107"/>
    <g id="xtick_108"/>
    <g id="xtick_109"/>
    <g id="xtick_110"/>
    <g id="xtick_111"/>
    <g id="xtick_112"/>
    <g id="xtick_113"/>
    <g id="xtick_114"/>
    <g id="xtick_115"/>
    <g id="xtick_116"/>
    <g id="xtick_117"/>
    <g id="xtick_118"/>
    <g id="xtick_119"/>
    <g id="xtick_120"/>
    <g id="xtick_121"/>
    <g id="xtick_122"/>
    <g id="xtick_123"/>
    <g id="xtick_124"/>
    <g id="xtick_125"/>
    <g id="xtick_126"/>
    <g id="xtick_127"/>
    <g id="xtick_128"/>
   </g>
   <g id="matplotlib.axis_8"/>
   <g id="text_4">
    <!-- Reduced $C_s$ -->
    <g transform="translate(20.409449 126.9797) scale(0.07 -0.07)">
     <defs>
      <path id="DejaVuSans-Oblique-43" d="M 4447 4306 
L 4319 3641 
Q 4019 3944 3683 4091 
Q 3347 4238 2956 4238 
Q 2422 4238 2017 3981 
Q 1613 3725 1319 3200 
Q 1131 2863 1032 2486 
Q 934 2109 934 1728 
Q 934 1091 1264 756 
Q 1594 422 2222 422 
Q 2656 422 3056 561 
Q 3456 700 3834 978 
L 3688 231 
Q 3316 72 2936 -9 
Q 2556 -91 2175 -91 
Q 1278 -91 773 396 
Q 269 884 269 1753 
Q 269 2309 461 2846 
Q 653 3384 1013 3828 
Q 1394 4300 1883 4525 
Q 2372 4750 3022 4750 
Q 3422 4750 3780 4639 
Q 4138 4528 4447 4306 
z
" transform="scale(0.015625)"/>
      <path id="DejaVuSans-Oblique-73" d="M 3200 3397 
L 3091 2853 
Q 2863 2978 2609 3040 
Q 2356 3103 2088 3103 
Q 1634 3103 1373 2948 
Q 1113 2794 1113 2528 
Q 1113 2219 1719 2053 
Q 1766 2041 1788 2034 
L 1972 1978 
Q 2547 1819 2739 1644 
Q 2931 1469 2931 1166 
Q 2931 609 2489 259 
Q 2047 -91 1331 -91 
Q 1053 -91 747 -37 
Q 441 16 72 128 
L 184 722 
Q 500 559 806 475 
Q 1113 391 1394 391 
Q 1816 391 2080 572 
Q 2344 753 2344 1031 
Q 2344 1331 1650 1516 
L 1591 1531 
L 1394 1581 
Q 956 1697 753 1886 
Q 550 2075 550 2369 
Q 550 2928 970 3256 
Q 1391 3584 2113 3584 
Q 2397 3584 2667 3537 
Q 2938 3491 3200 3397 
z
" transform="scale(0.015625)"/>
     </defs>
     <use xlink:href="#Roboto-Regular-52"/>
     <use xlink:href="#Roboto-Regular-65" transform="translate(61.572266 0)"/>
     <use xlink:href="#Roboto-Regular-64" transform="translate(114.550781 0)"/>
     <use xlink:href="#Roboto-Regular-75" transform="translate(170.947266 0)"/>
     <use xlink:href="#Roboto-Regular-63" transform="translate(226.074219 0)"/>
     <use xlink:href="#Roboto-Regular-65" transform="translate(278.417969 0)"/>
     <use xlink:href="#Roboto-Regular-64" transform="translate(331.396484 0)"/>
     <use xlink:href="#Roboto-Regular-20" transform="translate(387.792969 0)"/>
     <use xlink:href="#DejaVuSans-Oblique-43" transform="translate(412.548828 0)"/>
     <use xlink:href="#DejaVuSans-Oblique-73" transform="translate(482.373047 -16.40625) scale(0.7)"/>
    </g>
   </g>
  </g>
  <g id="axes_5">
   <g id="patch_10">
    <path d="M 20.409449 157.181102 
L 247.464567 157.181102 
L 247.464567 117.496063 
L 20.409449 117.496063 
L 20.409449 157.181102 
z
" style="fill: none; opacity: 0"/>
   </g>
   <g id="PolyCollection_5">
    <defs>
     <path id="m9652b1ae03" d="M 81.227784 -55.535668 
L 81.227784 -55.535668 
L 83.070764 -55.535668 
L 84.913744 -55.535668 
L 86.756724 -55.535668 
L 88.599703 -55.535668 
L 90.442683 -55.535668 
L 92.285663 -55.535668 
L 94.128643 -55.535668 
L 95.971623 -55.535668 
L 97.814603 -55.535668 
L 99.657583 -55.535668 
L 101.500562 -55.535668 
L 103.343542 -55.535676 
L 105.186522 -55.53577 
L 107.029502 -55.53653 
L 108.872482 -55.54071 
L 110.715462 -55.556145 
L 112.558442 -55.594145 
L 114.401421 -55.656769 
L 116.244401 -55.73166 
L 118.087381 -55.8199 
L 119.930361 -55.953537 
L 121.773341 -56.159278 
L 123.616321 -56.456322 
L 125.459301 -56.927753 
L 127.30228 -57.688265 
L 129.14526 -58.712021 
L 130.98824 -59.820372 
L 132.83122 -60.890796 
L 134.6742 -61.971644 
L 136.51718 -63.210487 
L 138.36016 -64.700673 
L 140.203139 -66.406526 
L 142.046119 -68.355587 
L 143.889099 -70.724814 
L 145.732079 -73.441002 
L 147.575059 -76.00954 
L 149.418039 -78.082884 
L 151.261019 -79.819731 
L 153.103998 -81.498145 
L 154.946978 -83.242554 
L 156.789958 -85.113871 
L 158.632938 -87.012672 
L 160.475918 -88.636017 
L 162.318898 -89.797747 
L 164.161877 -90.582182 
L 166.004857 -91.136815 
L 167.847837 -91.535134 
L 169.690817 -91.835459 
L 171.533797 -92.105805 
L 173.376777 -92.36405 
L 175.219757 -92.545801 
L 177.062736 -92.518138 
L 178.905716 -92.322872 
L 180.748696 -92.429694 
L 182.591676 -93.280726 
L 184.434656 -94.504137 
L 186.277636 -94.984017 
L 188.120616 -93.828408 
L 189.963595 -91.142786 
L 191.806575 -87.85972 
L 193.649555 -84.929966 
L 195.492535 -82.626438 
L 197.335515 -80.559335 
L 199.178495 -78.295591 
L 201.021475 -75.612568 
L 202.864454 -72.334365 
L 204.707434 -68.608679 
L 206.550414 -65.121032 
L 208.393394 -62.449769 
L 210.236374 -60.532909 
L 212.079354 -59.061778 
L 213.922334 -57.933318 
L 215.765313 -57.146202 
L 217.608293 -56.625089 
L 219.451273 -56.261253 
L 221.294253 -55.989082 
L 223.137233 -55.790735 
L 224.980213 -55.660469 
L 226.823193 -55.586177 
L 228.666172 -55.551527 
L 230.509152 -55.539323 
L 232.352132 -55.536265 
L 234.195112 -55.535735 
L 236.038092 -55.535673 
L 237.881072 -55.535668 
L 239.724052 -55.535668 
L 241.567031 -55.535668 
L 243.410011 -55.535668 
L 245.252991 -55.535668 
L 247.095971 -55.535668 
L 248.938951 -55.535668 
L 250.781931 -55.535668 
L 252.624911 -55.535668 
L 254.46789 -55.535668 
L 256.31087 -55.535668 
L 258.15385 -55.535668 
L 259.99683 -55.535668 
L 261.83981 -55.535668 
L 263.68279 -55.535668 
L 263.68279 -55.535668 
L 263.68279 -55.535668 
L 261.83981 -55.535668 
L 259.99683 -55.535668 
L 258.15385 -55.535668 
L 256.31087 -55.535668 
L 254.46789 -55.535668 
L 252.624911 -55.535668 
L 250.781931 -55.535668 
L 248.938951 -55.535668 
L 247.095971 -55.535668 
L 245.252991 -55.535668 
L 243.410011 -55.535668 
L 241.567031 -55.535668 
L 239.724052 -55.535668 
L 237.881072 -55.535668 
L 236.038092 -55.535668 
L 234.195112 -55.535668 
L 232.352132 -55.535668 
L 230.509152 -55.535668 
L 228.666172 -55.535668 
L 226.823193 -55.535668 
L 224.980213 -55.535668 
L 223.137233 -55.535668 
L 221.294253 -55.535668 
L 219.451273 -55.535668 
L 217.608293 -55.535668 
L 215.765313 -55.535668 
L 213.922334 -55.535668 
L 212.079354 -55.535668 
L 210.236374 -55.535668 
L 208.393394 -55.535668 
L 206.550414 -55.535668 
L 204.707434 -55.535668 
L 202.864454 -55.535668 
L 201.021475 -55.535668 
L 199.178495 -55.535668 
L 197.335515 -55.535668 
L 195.492535 -55.535668 
L 193.649555 -55.535668 
L 191.806575 -55.535668 
L 189.963595 -55.535668 
L 188.120616 -55.535668 
L 186.277636 -55.535668 
L 184.434656 -55.535668 
L 182.591676 -55.535668 
L 180.748696 -55.535668 
L 178.905716 -55.535668 
L 177.062736 -55.535668 
L 175.219757 -55.535668 
L 173.376777 -55.535668 
L 171.533797 -55.535668 
L 169.690817 -55.535668 
L 167.847837 -55.535668 
L 166.004857 -55.535668 
L 164.161877 -55.535668 
L 162.318898 -55.535668 
L 160.475918 -55.535668 
L 158.632938 -55.535668 
L 156.789958 -55.535668 
L 154.946978 -55.535668 
L 153.103998 -55.535668 
L 151.261019 -55.535668 
L 149.418039 -55.535668 
L 147.575059 -55.535668 
L 145.732079 -55.535668 
L 143.889099 -55.535668 
L 142.046119 -55.535668 
L 140.203139 -55.535668 
L 138.36016 -55.535668 
L 136.51718 -55.535668 
L 134.6742 -55.535668 
L 132.83122 -55.535668 
L 130.98824 -55.535668 
L 129.14526 -55.535668 
L 127.30228 -55.535668 
L 125.459301 -55.535668 
L 123.616321 -55.535668 
L 121.773341 -55.535668 
L 119.930361 -55.535668 
L 118.087381 -55.535668 
L 116.244401 -55.535668 
L 114.401421 -55.535668 
L 112.558442 -55.535668 
L 110.715462 -55.535668 
L 108.872482 -55.535668 
L 107.029502 -55.535668 
L 105.186522 -55.535668 
L 103.343542 -55.535668 
L 101.500562 -55.535668 
L 99.657583 -55.535668 
L 97.814603 -55.535668 
L 95.971623 -55.535668 
L 94.128643 -55.535668 
L 92.285663 -55.535668 
L 90.442683 -55.535668 
L 88.599703 -55.535668 
L 86.756724 -55.535668 
L 84.913744 -55.535668 
L 83.070764 -55.535668 
L 81.227784 -55.535668 
z
"/>
    </defs>
    <g clip-path="url(#p25df9bb6d6)">
     <use xlink:href="#m9652b1ae03" x="0" y="212.598425" style="fill: #f46c6c"/>
    </g>
   </g>
   <g id="line2d_5">
    <path d="M 81.227784 157.062757 
L 83.070764 157.062757 
L 84.913744 157.062757 
L 86.756724 157.062757 
L 88.599703 157.062757 
L 90.442683 157.062757 
L 92.285663 157.062757 
L 94.128643 157.062757 
L 95.971623 157.062757 
L 97.814603 157.062757 
L 99.657583 157.062757 
L 101.500562 157.062757 
L 103.343542 157.062749 
L 105.186522 157.062655 
L 107.029502 157.061895 
L 108.872482 157.057715 
L 110.715462 157.04228 
L 112.558442 157.00428 
L 114.401421 156.941657 
L 116.244401 156.866765 
L 118.087381 156.778526 
L 119.930361 156.644888 
L 121.773341 156.439148 
L 123.616321 156.142103 
L 125.459301 155.670672 
L 127.30228 154.91016 
L 129.14526 153.886404 
L 130.98824 152.778053 
L 132.83122 151.707629 
L 134.6742 150.626781 
L 136.51718 149.387939 
L 138.36016 147.897752 
L 140.203139 146.1919 
L 142.046119 144.242838 
L 143.889099 141.873611 
L 145.732079 139.157423 
L 147.575059 136.588886 
L 149.418039 134.515541 
L 151.261019 132.778694 
L 153.103998 131.100281 
L 154.946978 129.355871 
L 156.789958 127.484554 
L 158.632938 125.585753 
L 160.475918 123.962409 
L 162.318898 122.800678 
L 164.161877 122.016243 
L 166.004857 121.46161 
L 167.847837 121.063291 
L 169.690817 120.762966 
L 171.533797 120.49262 
L 173.376777 120.234375 
L 175.219757 120.052624 
L 177.062736 120.080287 
L 178.905716 120.275553 
L 180.748696 120.168731 
L 182.591676 119.3177 
L 184.434656 118.094288 
L 186.277636 117.614408 
L 188.120616 118.770017 
L 189.963595 121.455639 
L 191.806575 124.738705 
L 193.649555 127.668459 
L 195.492535 129.971987 
L 197.335515 132.03909 
L 199.178495 134.302835 
L 201.021475 136.985857 
L 202.864454 140.26406 
L 204.707434 143.989746 
L 206.550414 147.477393 
L 208.393394 150.148656 
L 210.236374 152.065516 
L 212.079354 153.536647 
L 213.922334 154.665107 
L 215.765313 155.452223 
L 217.608293 155.973337 
L 219.451273 156.337172 
L 221.294253 156.609343 
L 223.137233 156.807691 
L 224.980213 156.937956 
L 226.823193 157.012248 
L 228.666172 157.046898 
L 230.509152 157.059102 
L 232.352132 157.062161 
L 234.195112 157.06269 
L 236.038092 157.062752 
L 237.881072 157.062757 
L 239.724052 157.062757 
L 241.567031 157.062757 
L 243.410011 157.062757 
L 245.252991 157.062757 
L 247.095971 157.062757 
L 248.938951 157.062757 
L 250.781931 157.062757 
L 252.624911 157.062757 
L 254.46789 157.062757 
L 256.11811 157.062757 
" clip-path="url(#p25df9bb6d6)" style="fill: none; stroke: #ffffff; stroke-width: 0.75; stroke-linecap: square"/>
   </g>
   <g id="patch_11">
    <path d="M 20.409449 157.181102 
L 247.464567 157.181102 
" style="fill: none; stroke: #ced4da; stroke-width: 0.5; stroke-linejoin: miter; stroke-linecap: square"/>
   </g>
   <g id="matplotlib.axis_9">
    <g id="xtick_129"/>
    <g id="xtick_130"/>
    <g id="xtick_131"/>
    <g id="xtick_132"/>
    <g id="xtick_133"/>
    <g id="xtick_134"/>
    <g id="xtick_135"/>
    <g id="xtick_136"/>
    <g id="xtick_137"/>
    <g id="xtick_138"/>
    <g id="xtick_139"/>
    <g id="xtick_140"/>
    <g id="xtick_141"/>
    <g id="xtick_142"/>
    <g id="xtick_143"/>
    <g id="xtick_144"/>
    <g id="xtick_145"/>
    <g id="xtick_146"/>
    <g id="xtick_147"/>
    <g id="xtick_148"/>
    <g id="xtick_149"/>
    <g id="xtick_150"/>
    <g id="xtick_151"/>
    <g id="xtick_152"/>
    <g id="xtick_153"/>
    <g id="xtick_154"/>
    <g id="xtick_155"/>
    <g id="xtick_156"/>
    <g id="xtick_157"/>
    <g id="xtick_158"/>
    <g id="xtick_159"/>
    <g id="xtick_160"/>
   </g>
   <g id="matplotlib.axis_10"/>
   <g id="text_5">
    <!-- Reduced $k_s$ -->
    <g transform="translate(20.409449 154.759227) scale(0.07 -0.07)">
     <defs>
      <path id="DejaVuSans-Oblique-6b" d="M 1172 4863 
L 1747 4863 
L 1197 2028 
L 3169 3500 
L 3916 3500 
L 1716 1825 
L 3322 0 
L 2625 0 
L 1131 1709 
L 800 0 
L 225 0 
L 1172 4863 
z
" transform="scale(0.015625)"/>
     </defs>
     <use xlink:href="#Roboto-Regular-52" transform="translate(0 0.015625)"/>
     <use xlink:href="#Roboto-Regular-65" transform="translate(61.572266 0.015625)"/>
     <use xlink:href="#Roboto-Regular-64" transform="translate(114.550781 0.015625)"/>
     <use xlink:href="#Roboto-Regular-75" transform="translate(170.947266 0.015625)"/>
     <use xlink:href="#Roboto-Regular-63" transform="translate(226.074219 0.015625)"/>
     <use xlink:href="#Roboto-Regular-65" transform="translate(278.417969 0.015625)"/>
     <use xlink:href="#Roboto-Regular-64" transform="translate(331.396484 0.015625)"/>
     <use xlink:href="#Roboto-Regular-20" transform="translate(387.792969 0.015625)"/>
     <use xlink:href="#DejaVuSans-Oblique-6b" transform="translate(412.548828 0.015625)"/>
     <use xlink:href="#DejaVuSans-Oblique-73" transform="translate(470.458984 -16.390625) scale(0.7)"/>
    </g>
   </g>
  </g>
  <g id="axes_6">
   <g id="patch_12">
    <path d="M 20.409449 184.96063 
L 247.464567 184.96063 
L 247.464567 145.275591 
L 20.409449 145.275591 
L 20.409449 184.96063 
z
" style="fill: none; opacity: 0"/>
   </g>
   <g id="PolyCollection_6">
    <defs>
     <path id="m5731966628" d="M 81.227784 -27.637795 
L 81.227784 -27.637795 
L 83.070764 -27.637795 
L 84.913744 -27.637795 
L 86.756724 -27.637795 
L 88.599703 -27.637795 
L 90.442683 -27.637795 
L 92.285663 -27.637795 
L 94.128643 -27.637795 
L 95.971623 -27.637795 
L 97.814603 -27.637795 
L 99.657583 -27.637795 
L 101.500562 -27.637795 
L 103.343542 -27.637795 
L 105.186522 -27.637795 
L 107.029502 -27.637795 
L 108.872482 -27.637795 
L 110.715462 -27.637795 
L 112.558442 -27.637795 
L 114.401421 -27.637795 
L 116.244401 -27.637795 
L 118.087381 -27.637795 
L 119.930361 -27.637795 
L 121.773341 -27.637795 
L 123.616321 -27.637795 
L 125.459301 -27.637796 
L 127.30228 -27.637853 
L 129.14526 -27.639298 
L 130.98824 -27.65512 
L 132.83122 -27.728242 
L 134.6742 -27.864624 
L 136.51718 -27.954829 
L 138.36016 -28.016423 
L 140.203139 -28.255704 
L 142.046119 -28.723835 
L 143.889099 -29.267593 
L 145.732079 -29.899003 
L 147.575059 -30.734366 
L 149.418039 -31.624676 
L 151.261019 -32.692687 
L 153.103998 -34.493639 
L 154.946978 -37.138215 
L 156.789958 -39.913838 
L 158.632938 -42.591268 
L 160.475918 -45.519152 
L 162.318898 -48.569998 
L 164.161877 -52.026758 
L 166.004857 -55.525418 
L 167.847837 -58.686079 
L 169.690817 -61.403753 
L 171.533797 -63.93603 
L 173.376777 -66.253938 
L 175.219757 -66.959303 
L 177.062736 -66.657832 
L 178.905716 -66.694624 
L 180.748696 -67.204136 
L 182.591676 -67.043367 
L 184.434656 -65.008448 
L 186.277636 -61.196247 
L 188.120616 -57.042082 
L 189.963595 -53.260057 
L 191.806575 -49.654296 
L 193.649555 -46.268891 
L 195.492535 -42.62516 
L 197.335515 -39.20084 
L 199.178495 -36.598129 
L 201.021475 -34.701777 
L 202.864454 -32.836577 
L 204.707434 -30.741546 
L 206.550414 -29.181416 
L 208.393394 -28.54301 
L 210.236374 -28.361543 
L 212.079354 -28.180098 
L 213.922334 -27.937068 
L 215.765313 -27.751873 
L 217.608293 -27.675857 
L 219.451273 -27.648902 
L 221.294253 -27.639593 
L 223.137233 -27.637924 
L 224.980213 -27.637799 
L 226.823193 -27.637795 
L 228.666172 -27.637795 
L 230.509152 -27.637795 
L 232.352132 -27.637795 
L 234.195112 -27.637795 
L 236.038092 -27.637795 
L 237.881072 -27.637795 
L 239.724052 -27.637795 
L 241.567031 -27.637795 
L 243.410011 -27.637795 
L 245.252991 -27.637795 
L 247.095971 -27.637795 
L 248.938951 -27.637795 
L 250.781931 -27.637795 
L 252.624911 -27.637795 
L 254.46789 -27.637795 
L 256.31087 -27.637795 
L 258.15385 -27.637795 
L 259.99683 -27.637795 
L 261.83981 -27.637795 
L 263.68279 -27.637795 
L 263.68279 -27.637795 
L 263.68279 -27.637795 
L 261.83981 -27.637795 
L 259.99683 -27.637795 
L 258.15385 -27.637795 
L 256.31087 -27.637795 
L 254.46789 -27.637795 
L 252.624911 -27.637795 
L 250.781931 -27.637795 
L 248.938951 -27.637795 
L 247.095971 -27.637795 
L 245.252991 -27.637795 
L 243.410011 -27.637795 
L 241.567031 -27.637795 
L 239.724052 -27.637795 
L 237.881072 -27.637795 
L 236.038092 -27.637795 
L 234.195112 -27.637795 
L 232.352132 -27.637795 
L 230.509152 -27.637795 
L 228.666172 -27.637795 
L 226.823193 -27.637795 
L 224.980213 -27.637795 
L 223.137233 -27.637795 
L 221.294253 -27.637795 
L 219.451273 -27.637795 
L 217.608293 -27.637795 
L 215.765313 -27.637795 
L 213.922334 -27.637795 
L 212.079354 -27.637795 
L 210.236374 -27.637795 
L 208.393394 -27.637795 
L 206.550414 -27.637795 
L 204.707434 -27.637795 
L 202.864454 -27.637795 
L 201.021475 -27.637795 
L 199.178495 -27.637795 
L 197.335515 -27.637795 
L 195.492535 -27.637795 
L 193.649555 -27.637795 
L 191.806575 -27.637795 
L 189.963595 -27.637795 
L 188.120616 -27.637795 
L 186.277636 -27.637795 
L 184.434656 -27.637795 
L 182.591676 -27.637795 
L 180.748696 -27.637795 
L 178.905716 -27.637795 
L 177.062736 -27.637795 
L 175.219757 -27.637795 
L 173.376777 -27.637795 
L 171.533797 -27.637795 
L 169.690817 -27.637795 
L 167.847837 -27.637795 
L 166.004857 -27.637795 
L 164.161877 -27.637795 
L 162.318898 -27.637795 
L 160.475918 -27.637795 
L 158.632938 -27.637795 
L 156.789958 -27.637795 
L 154.946978 -27.637795 
L 153.103998 -27.637795 
L 151.261019 -27.637795 
L 149.418039 -27.637795 
L 147.575059 -27.637795 
L 145.732079 -27.637795 
L 143.889099 -27.637795 
L 142.046119 -27.637795 
L 140.203139 -27.637795 
L 138.36016 -27.637795 
L 136.51718 -27.637795 
L 134.6742 -27.637795 
L 132.83122 -27.637795 
L 130.98824 -27.637795 
L 129.14526 -27.637795 
L 127.30228 -27.637795 
L 125.459301 -27.637795 
L 123.616321 -27.637795 
L 121.773341 -27.637795 
L 119.930361 -27.637795 
L 118.087381 -27.637795 
L 116.244401 -27.637795 
L 114.401421 -27.637795 
L 112.558442 -27.637795 
L 110.715462 -27.637795 
L 108.872482 -27.637795 
L 107.029502 -27.637795 
L 105.186522 -27.637795 
L 103.343542 -27.637795 
L 101.500562 -27.637795 
L 99.657583 -27.637795 
L 97.814603 -27.637795 
L 95.971623 -27.637795 
L 94.128643 -27.637795 
L 92.285663 -27.637795 
L 90.442683 -27.637795 
L 88.599703 -27.637795 
L 86.756724 -27.637795 
L 84.913744 -27.637795 
L 83.070764 -27.637795 
L 81.227784 -27.637795 
z
"/>
    </defs>
    <g clip-path="url(#p6a2e4e06c8)">
     <use xlink:href="#m5731966628" x="0" y="212.598425" style="fill: #f25151"/>
    </g>
   </g>
   <g id="line2d_6">
    <path d="M 81.227784 184.96063 
L 83.070764 184.96063 
L 84.913744 184.96063 
L 86.756724 184.96063 
L 88.599703 184.96063 
L 90.442683 184.96063 
L 92.285663 184.96063 
L 94.128643 184.96063 
L 95.971623 184.96063 
L 97.814603 184.96063 
L 99.657583 184.96063 
L 101.500562 184.96063 
L 103.343542 184.96063 
L 105.186522 184.96063 
L 107.029502 184.96063 
L 108.872482 184.96063 
L 110.715462 184.96063 
L 112.558442 184.96063 
L 114.401421 184.96063 
L 116.244401 184.96063 
L 118.087381 184.96063 
L 119.930361 184.96063 
L 121.773341 184.96063 
L 123.616321 184.96063 
L 125.459301 184.960629 
L 127.30228 184.960573 
L 129.14526 184.959127 
L 130.98824 184.943305 
L 132.83122 184.870183 
L 134.6742 184.733801 
L 136.51718 184.643596 
L 138.36016 184.582002 
L 140.203139 184.342721 
L 142.046119 183.87459 
L 143.889099 183.330833 
L 145.732079 182.699422 
L 147.575059 181.864059 
L 149.418039 180.973749 
L 151.261019 179.905738 
L 153.103998 178.104786 
L 154.946978 175.46021 
L 156.789958 172.684587 
L 158.632938 170.007157 
L 160.475918 167.079274 
L 162.318898 164.028427 
L 164.161877 160.571667 
L 166.004857 157.073007 
L 167.847837 153.912347 
L 169.690817 151.194673 
L 171.533797 148.662396 
L 173.376777 146.344488 
L 175.219757 145.639122 
L 177.062736 145.940593 
L 178.905716 145.903801 
L 180.748696 145.39429 
L 182.591676 145.555058 
L 184.434656 147.589977 
L 186.277636 151.402178 
L 188.120616 155.556343 
L 189.963595 159.338368 
L 191.806575 162.944129 
L 193.649555 166.329535 
L 195.492535 169.973265 
L 197.335515 173.397585 
L 199.178495 176.000296 
L 201.021475 177.896648 
L 202.864454 179.761849 
L 204.707434 181.856879 
L 206.550414 183.417009 
L 208.393394 184.055415 
L 210.236374 184.236882 
L 212.079354 184.418327 
L 213.922334 184.661357 
L 215.765313 184.846553 
L 217.608293 184.922568 
L 219.451273 184.949523 
L 221.294253 184.958832 
L 223.137233 184.960501 
L 224.980213 184.960626 
L 226.823193 184.96063 
L 228.666172 184.96063 
L 230.509152 184.96063 
L 232.352132 184.96063 
L 234.195112 184.96063 
L 236.038092 184.96063 
L 237.881072 184.96063 
L 239.724052 184.96063 
L 241.567031 184.96063 
L 243.410011 184.96063 
L 245.252991 184.96063 
L 247.095971 184.96063 
L 248.938951 184.96063 
L 250.781931 184.96063 
L 252.624911 184.96063 
L 254.46789 184.96063 
L 256.11811 184.96063 
" clip-path="url(#p6a2e4e06c8)" style="fill: none; stroke: #ffffff; stroke-width: 0.75; stroke-linecap: square"/>
   </g>
   <g id="patch_13">
    <path d="M 20.409449 184.96063 
L 247.464567 184.96063 
" style="fill: none; stroke: #000000; stroke-width: 0.3; stroke-linejoin: miter; stroke-linecap: square"/>
   </g>
   <g id="matplotlib.axis_11">
    <g id="xtick_161">
     <g id="line2d_7">
      <defs>
       <path id="mb1604ed816" d="M 0 0 
L 0 -1 
" style="stroke: #000000; stroke-width: 0.25"/>
      </defs>
      <g>
       <use xlink:href="#mb1604ed816" x="101.500562" y="184.96063" style="stroke: #000000; stroke-width: 0.25"/>
      </g>
     </g>
     <g id="text_6">
      <!-- 2.0 -->
      <g transform="translate(94.649312 193.71063) scale(0.07 -0.07)">
       <defs>
        <path id="Roboto-Regular-2212" d="M 3134 2034 
L 525 2034 
L 525 2506 
L 3134 2506 
L 3134 2034 
z
" transform="scale(0.015625)"/>
        <path id="Roboto-Regular-32" d="M 3359 0 
L 378 0 
L 378 416 
L 1953 2166 
Q 2303 2563 2436 2811 
Q 2569 3059 2569 3325 
Q 2569 3681 2353 3909 
Q 2138 4138 1778 4138 
Q 1347 4138 1108 3892 
Q 869 3647 869 3209 
L 291 3209 
Q 291 3838 695 4225 
Q 1100 4613 1778 4613 
Q 2413 4613 2781 4280 
Q 3150 3947 3150 3394 
Q 3150 2722 2294 1794 
L 1075 472 
L 3359 472 
L 3359 0 
z
" transform="scale(0.015625)"/>
        <path id="Roboto-Regular-2e" d="M 450 303 
Q 450 453 539 553 
Q 628 653 806 653 
Q 984 653 1076 553 
Q 1169 453 1169 303 
Q 1169 159 1076 62 
Q 984 -34 806 -34 
Q 628 -34 539 62 
Q 450 159 450 303 
z
" transform="scale(0.015625)"/>
        <path id="Roboto-Regular-30" d="M 3231 1941 
Q 3231 925 2884 431 
Q 2538 -63 1800 -63 
Q 1072 -63 722 420 
Q 372 903 359 1863 
L 359 2634 
Q 359 3638 706 4125 
Q 1053 4613 1794 4613 
Q 2528 4613 2875 4142 
Q 3222 3672 3231 2691 
L 3231 1941 
z
M 2653 2731 
Q 2653 3466 2447 3802 
Q 2241 4138 1794 4138 
Q 1350 4138 1147 3803 
Q 944 3469 938 2775 
L 938 1850 
Q 938 1113 1152 761 
Q 1366 409 1800 409 
Q 2228 409 2436 740 
Q 2644 1072 2653 1784 
L 2653 2731 
z
" transform="scale(0.015625)"/>
       </defs>
       <use xlink:href="#Roboto-Regular-2212"/>
       <use xlink:href="#Roboto-Regular-32" x="57.128906"/>
       <use xlink:href="#Roboto-Regular-2e" x="113.28125"/>
       <use xlink:href="#Roboto-Regular-30" x="139.599609"/>
      </g>
     </g>
    </g>
    <g id="xtick_162">
     <g id="line2d_8">
      <g>
       <use xlink:href="#mb1604ed816" x="129.882452" y="184.96063" style="stroke: #000000; stroke-width: 0.25"/>
      </g>
     </g>
     <g id="text_7">
      <!-- 1.3 -->
      <g transform="translate(123.031202 193.71063) scale(0.07 -0.07)">
       <defs>
        <path id="Roboto-Regular-31" d="M 2278 0 
L 1697 0 
L 1697 3853 
L 531 3425 
L 531 3950 
L 2188 4572 
L 2278 4572 
L 2278 0 
z
" transform="scale(0.015625)"/>
        <path id="Roboto-Regular-33" d="M 1219 2556 
L 1653 2556 
Q 2063 2563 2297 2772 
Q 2531 2981 2531 3338 
Q 2531 4138 1734 4138 
Q 1359 4138 1136 3923 
Q 913 3709 913 3356 
L 334 3356 
Q 334 3897 729 4255 
Q 1125 4613 1734 4613 
Q 2378 4613 2743 4272 
Q 3109 3931 3109 3325 
Q 3109 3028 2917 2750 
Q 2725 2472 2394 2334 
Q 2769 2216 2973 1941 
Q 3178 1666 3178 1269 
Q 3178 656 2778 296 
Q 2378 -63 1737 -63 
Q 1097 -63 695 284 
Q 294 631 294 1200 
L 875 1200 
Q 875 841 1109 625 
Q 1344 409 1738 409 
Q 2156 409 2378 628 
Q 2600 847 2600 1256 
Q 2600 1653 2356 1865 
Q 2113 2078 1653 2084 
L 1219 2084 
L 1219 2556 
z
" transform="scale(0.015625)"/>
       </defs>
       <use xlink:href="#Roboto-Regular-2212"/>
       <use xlink:href="#Roboto-Regular-31" x="57.128906"/>
       <use xlink:href="#Roboto-Regular-2e" x="113.28125"/>
       <use xlink:href="#Roboto-Regular-33" x="139.599609"/>
      </g>
     </g>
    </g>
    <g id="xtick_163">
     <g id="line2d_9">
      <g>
       <use xlink:href="#mb1604ed816" x="158.264342" y="184.96063" style="stroke: #000000; stroke-width: 0.25"/>
      </g>
     </g>
     <g id="text_8">
      <!-- 0.6 -->
      <g transform="translate(151.413092 193.71063) scale(0.07 -0.07)">
       <defs>
        <path id="Roboto-Regular-36" d="M 2647 4553 
L 2647 4063 
L 2541 4063 
Q 1866 4050 1466 3662 
Q 1066 3275 1003 2572 
Q 1363 2984 1984 2984 
Q 2578 2984 2933 2565 
Q 3288 2147 3288 1484 
Q 3288 781 2905 359 
Q 2522 -63 1878 -63 
Q 1225 -63 819 439 
Q 413 941 413 1731 
L 413 1953 
Q 413 3209 948 3873 
Q 1484 4538 2544 4553 
L 2647 4553 
z
M 1888 2503 
Q 1591 2503 1341 2325 
Q 1091 2147 994 1878 
L 994 1666 
Q 994 1103 1247 759 
Q 1500 416 1878 416 
Q 2269 416 2492 703 
Q 2716 991 2716 1456 
Q 2716 1925 2489 2214 
Q 2263 2503 1888 2503 
z
" transform="scale(0.015625)"/>
       </defs>
       <use xlink:href="#Roboto-Regular-2212"/>
       <use xlink:href="#Roboto-Regular-30" x="57.128906"/>
       <use xlink:href="#Roboto-Regular-2e" x="113.28125"/>
       <use xlink:href="#Roboto-Regular-36" x="139.599609"/>
      </g>
     </g>
    </g>
    <g id="xtick_164">
     <g id="line2d_10">
      <g>
       <use xlink:href="#mb1604ed816" x="186.646232" y="184.96063" style="stroke: #000000; stroke-width: 0.25"/>
      </g>
     </g>
     <g id="text_9">
      <!-- 0.1 -->
      <g transform="translate(181.794357 193.71063) scale(0.07 -0.07)">
       <use xlink:href="#Roboto-Regular-30"/>
       <use xlink:href="#Roboto-Regular-2e" x="56.152344"/>
       <use xlink:href="#Roboto-Regular-31" x="82.470703"/>
      </g>
     </g>
    </g>
    <g id="xtick_165">
     <g id="line2d_11">
      <g>
       <use xlink:href="#mb1604ed816" x="215.028121" y="184.96063" style="stroke: #000000; stroke-width: 0.25"/>
      </g>
     </g>
     <g id="text_10">
      <!-- 0.8 -->
      <g transform="translate(210.176246 193.71063) scale(0.07 -0.07)">
       <defs>
        <path id="Roboto-Regular-38" d="M 3138 3363 
Q 3138 3022 2958 2756 
Q 2778 2491 2472 2341 
Q 2828 2188 3036 1894 
Q 3244 1600 3244 1228 
Q 3244 638 2845 287 
Q 2447 -63 1797 -63 
Q 1141 -63 745 289 
Q 350 641 350 1228 
Q 350 1597 551 1894 
Q 753 2191 1109 2344 
Q 806 2494 631 2759 
Q 456 3025 456 3363 
Q 456 3938 825 4275 
Q 1194 4613 1797 4613 
Q 2397 4613 2767 4275 
Q 3138 3938 3138 3363 
z
M 2666 1241 
Q 2666 1622 2423 1862 
Q 2181 2103 1790 2103 
Q 1400 2103 1164 1865 
Q 928 1628 928 1240 
Q 928 853 1158 631 
Q 1388 409 1797 409 
Q 2203 409 2434 632 
Q 2666 856 2666 1241 
z
M 1797 4138 
Q 1456 4138 1245 3927 
Q 1034 3716 1034 3353 
Q 1034 3006 1242 2792 
Q 1450 2578 1797 2578 
Q 2144 2578 2351 2792 
Q 2559 3006 2559 3353 
Q 2559 3700 2343 3919 
Q 2128 4138 1797 4138 
z
" transform="scale(0.015625)"/>
       </defs>
       <use xlink:href="#Roboto-Regular-30"/>
       <use xlink:href="#Roboto-Regular-2e" x="56.152344"/>
       <use xlink:href="#Roboto-Regular-38" x="82.470703"/>
      </g>
     </g>
    </g>
    <g id="xtick_166">
     <g id="line2d_12">
      <g>
       <use xlink:href="#mb1604ed816" x="243.410011" y="184.96063" style="stroke: #000000; stroke-width: 0.25"/>
      </g>
     </g>
     <g id="text_11">
      <!-- 1.5 -->
      <g transform="translate(238.558136 193.71063) scale(0.07 -0.07)">
       <defs>
        <path id="Roboto-Regular-35" d="M 644 2281 
L 875 4550 
L 3206 4550 
L 3206 4016 
L 1366 4016 
L 1228 2775 
Q 1563 2972 1988 2972 
Q 2609 2972 2975 2561 
Q 3341 2150 3341 1450 
Q 3341 747 2961 342 
Q 2581 -63 1900 -63 
Q 1297 -63 915 271 
Q 534 606 481 1197 
L 1028 1197 
Q 1081 806 1306 607 
Q 1531 409 1900 409 
Q 2303 409 2533 684 
Q 2763 959 2763 1444 
Q 2763 1900 2514 2176 
Q 2266 2453 1853 2453 
Q 1475 2453 1259 2288 
L 1106 2163 
L 644 2281 
z
" transform="scale(0.015625)"/>
       </defs>
       <use xlink:href="#Roboto-Regular-31"/>
       <use xlink:href="#Roboto-Regular-2e" x="56.152344"/>
       <use xlink:href="#Roboto-Regular-35" x="82.470703"/>
      </g>
     </g>
    </g>
    <g id="xtick_167"/>
    <g id="xtick_168"/>
    <g id="xtick_169"/>
    <g id="xtick_170"/>
    <g id="xtick_171"/>
    <g id="xtick_172"/>
    <g id="xtick_173"/>
    <g id="xtick_174"/>
    <g id="xtick_175"/>
    <g id="xtick_176"/>
    <g id="xtick_177"/>
    <g id="xtick_178"/>
    <g id="xtick_179"/>
    <g id="xtick_180"/>
    <g id="xtick_181"/>
    <g id="xtick_182"/>
    <g id="xtick_183"/>
    <g id="xtick_184"/>
    <g id="xtick_185"/>
    <g id="xtick_186"/>
    <g id="xtick_187"/>
    <g id="xtick_188"/>
    <g id="xtick_189"/>
    <g id="xtick_190"/>
    <g id="xtick_191"/>
    <g id="xtick_192"/>
   </g>
   <g id="matplotlib.axis_12"/>
   <g id="text_12">
    <!-- Reduced $r_b$, $D$, $C_s$, $k_s$ -->
    <g transform="translate(20.409449 182.538755) scale(0.07 -0.07)">
     <defs>
      <path id="Roboto-Regular-2c" d="M 419 -906 
L 91 -681 
Q 384 -272 397 163 
L 397 684 
L 963 684 
L 963 231 
Q 963 -84 808 -400 
Q 653 -716 419 -906 
z
" transform="scale(0.015625)"/>
     </defs>
     <use xlink:href="#Roboto-Regular-52" transform="translate(0 0.015625)"/>
     <use xlink:href="#Roboto-Regular-65" transform="translate(61.572266 0.015625)"/>
     <use xlink:href="#Roboto-Regular-64" transform="translate(114.550781 0.015625)"/>
     <use xlink:href="#Roboto-Regular-75" transform="translate(170.947266 0.015625)"/>
     <use xlink:href="#Roboto-Regular-63" transform="translate(226.074219 0.015625)"/>
     <use xlink:href="#Roboto-Regular-65" transform="translate(278.417969 0.015625)"/>
     <use xlink:href="#Roboto-Regular-64" transform="translate(331.396484 0.015625)"/>
     <use xlink:href="#Roboto-Regular-20" transform="translate(387.792969 0.015625)"/>
     <use xlink:href="#DejaVuSans-Oblique-72" transform="translate(412.548828 0.015625)"/>
     <use xlink:href="#DejaVuSans-Oblique-62" transform="translate(453.662109 -16.390625) scale(0.7)"/>
     <use xlink:href="#Roboto-Regular-2c" transform="translate(500.830078 0.015625)"/>
     <use xlink:href="#Roboto-Regular-20" transform="translate(520.458984 0.015625)"/>
     <use xlink:href="#DejaVuSans-Oblique-44" transform="translate(545.214844 0.015625)"/>
     <use xlink:href="#Roboto-Regular-2c" transform="translate(622.216797 0.015625)"/>
     <use xlink:href="#Roboto-Regular-20" transform="translate(641.845703 0.015625)"/>
     <use xlink:href="#DejaVuSans-Oblique-43" transform="translate(666.601562 0.015625)"/>
     <use xlink:href="#DejaVuSans-Oblique-73" transform="translate(736.425781 -16.390625) scale(0.7)"/>
     <use xlink:href="#Roboto-Regular-2c" transform="translate(775.629883 0.015625)"/>
     <use xlink:href="#Roboto-Regular-20" transform="translate(795.258789 0.015625)"/>
     <use xlink:href="#DejaVuSans-Oblique-6b" transform="translate(820.014648 0.015625)"/>
     <use xlink:href="#DejaVuSans-Oblique-73" transform="translate(877.924805 -16.390625) scale(0.7)"/>
    </g>
   </g>
  </g>
  <g id="text_13">
   <!-- Outlet fluid temperature of borefield [$^{\circ}$C] -->
   <g transform="translate(110.120287 206.229488) scale(0.07 -0.07)">
    <defs>
     <path id="Roboto-Regular-66" d="M 722 0 
L 722 2934 
L 188 2934 
L 188 3381 
L 722 3381 
L 722 3728 
Q 722 4272 1012 4569 
Q 1303 4866 1834 4866 
Q 2034 4866 2231 4813 
L 2200 4344 
Q 2053 4372 1888 4372 
Q 1606 4372 1453 4208 
Q 1300 4044 1300 3738 
L 1300 3381 
L 2022 3381 
L 2022 2934 
L 1300 2934 
L 1300 0 
L 722 0 
z
" transform="scale(0.015625)"/>
     <path id="Roboto-Regular-6d" d="M 981 3381 
L 997 3006 
Q 1369 3444 2000 3444 
Q 2709 3444 2966 2900 
Q 3134 3144 3404 3294 
Q 3675 3444 4044 3444 
Q 5156 3444 5175 2266 
L 5175 0 
L 4597 0 
L 4597 2231 
Q 4597 2594 4431 2773 
Q 4266 2953 3875 2953 
Q 3553 2953 3340 2761 
Q 3128 2569 3094 2244 
L 3094 0 
L 2513 0 
L 2513 2216 
Q 2513 2953 1791 2953 
Q 1222 2953 1013 2469 
L 1013 0 
L 434 0 
L 434 3381 
L 981 3381 
z
" transform="scale(0.015625)"/>
     <path id="Roboto-Regular-70" d="M 3294 1653 
Q 3294 881 2941 409 
Q 2588 -63 1984 -63 
Q 1369 -63 1016 328 
L 1016 -1300 
L 438 -1300 
L 438 3381 
L 966 3381 
L 994 3006 
Q 1347 3444 1975 3444 
Q 2584 3444 2939 2984 
Q 3294 2525 3294 1706 
L 3294 1653 
z
M 2716 1719 
Q 2716 2291 2472 2622 
Q 2228 2953 1803 2953 
Q 1278 2953 1016 2488 
L 1016 872 
Q 1275 409 1809 409 
Q 2225 409 2470 739 
Q 2716 1069 2716 1719 
z
" transform="scale(0.015625)"/>
     <path id="Roboto-Regular-6f" d="M 284 1722 
Q 284 2219 479 2616 
Q 675 3013 1023 3228 
Q 1372 3444 1819 3444 
Q 2509 3444 2936 2966 
Q 3363 2488 3363 1694 
L 3363 1653 
Q 3363 1159 3173 767 
Q 2984 375 2632 156 
Q 2281 -63 1825 -63 
Q 1138 -63 711 415 
Q 284 894 284 1681 
L 284 1722 
z
M 866 1653 
Q 866 1091 1127 750 
Q 1388 409 1825 409 
Q 2266 409 2525 754 
Q 2784 1100 2784 1722 
Q 2784 2278 2520 2623 
Q 2256 2969 1819 2969 
Q 1391 2969 1128 2628 
Q 866 2288 866 1653 
z
" transform="scale(0.015625)"/>
     <path id="Roboto-Regular-62" d="M 3300 1653 
Q 3300 878 2944 407 
Q 2588 -63 1988 -63 
Q 1347 -63 997 391 
L 969 0 
L 438 0 
L 438 4800 
L 1016 4800 
L 1016 3009 
Q 1366 3444 1981 3444 
Q 2597 3444 2948 2978 
Q 3300 2513 3300 1703 
L 3300 1653 
z
M 2722 1719 
Q 2722 2309 2494 2631 
Q 2266 2953 1838 2953 
Q 1266 2953 1016 2422 
L 1016 959 
Q 1281 428 1844 428 
Q 2259 428 2490 750 
Q 2722 1072 2722 1719 
z
" transform="scale(0.015625)"/>
     <path id="Roboto-Regular-5b" d="M 1634 4725 
L 1038 4725 
L 1038 -500 
L 1634 -500 
L 1634 -975 
L 456 -975 
L 456 5200 
L 1634 5200 
L 1634 4725 
z
" transform="scale(0.015625)"/>
     <path id="DejaVuSans-2218" d="M 2003 2603 
Q 1753 2603 1581 2429 
Q 1409 2256 1409 2006 
Q 1409 1759 1581 1589 
Q 1753 1419 2003 1419 
Q 2253 1419 2425 1589 
Q 2597 1759 2597 2006 
Q 2597 2253 2423 2428 
Q 2250 2603 2003 2603 
z
M 2003 3006 
Q 2203 3006 2387 2929 
Q 2572 2853 2706 2709 
Q 2850 2569 2922 2390 
Q 2994 2212 2994 2006 
Q 2994 1594 2705 1308 
Q 2416 1022 1997 1022 
Q 1575 1022 1294 1303 
Q 1013 1584 1013 2006 
Q 1013 2425 1300 2715 
Q 1588 3006 2003 3006 
z
" transform="scale(0.015625)"/>
     <path id="Roboto-Regular-43" d="M 3875 1444 
Q 3791 722 3342 329 
Q 2894 -63 2150 -63 
Q 1344 -63 858 515 
Q 372 1094 372 2063 
L 372 2500 
Q 372 3134 598 3615 
Q 825 4097 1240 4355 
Q 1656 4613 2203 4613 
Q 2928 4613 3365 4208 
Q 3803 3803 3875 3088 
L 3272 3088 
Q 3194 3631 2933 3875 
Q 2672 4119 2203 4119 
Q 1628 4119 1301 3694 
Q 975 3269 975 2484 
L 975 2044 
Q 975 1303 1284 865 
Q 1594 428 2150 428 
Q 2650 428 2917 654 
Q 3184 881 3272 1444 
L 3875 1444 
z
" transform="scale(0.015625)"/>
     <path id="Roboto-Regular-5d" d="M 28 5200 
L 1209 5200 
L 1209 -975 
L 28 -975 
L 28 -500 
L 631 -500 
L 631 4725 
L 28 4725 
L 28 5200 
z
" transform="scale(0.015625)"/>
    </defs>
    <use xlink:href="#Roboto-Regular-4f" transform="translate(0 0.75)"/>
    <use xlink:href="#Roboto-Regular-75" transform="translate(68.75 0.75)"/>
    <use xlink:href="#Roboto-Regular-74" transform="translate(123.876953 0.75)"/>
    <use xlink:href="#Roboto-Regular-6c" transform="translate(156.542969 0.75)"/>
    <use xlink:href="#Roboto-Regular-65" transform="translate(180.810547 0.75)"/>
    <use xlink:href="#Roboto-Regular-74" transform="translate(233.789062 0.75)"/>
    <use xlink:href="#Roboto-Regular-20" transform="translate(266.455078 0.75)"/>
    <use xlink:href="#Roboto-Regular-66" transform="translate(291.210938 0.75)"/>
    <use xlink:href="#Roboto-Regular-6c" transform="translate(325.927734 0.75)"/>
    <use xlink:href="#Roboto-Regular-75" transform="translate(350.195312 0.75)"/>
    <use xlink:href="#Roboto-Regular-69" transform="translate(405.322266 0.75)"/>
    <use xlink:href="#Roboto-Regular-64" transform="translate(429.589844 0.75)"/>
    <use xlink:href="#Roboto-Regular-20" transform="translate(485.986328 0.75)"/>
    <use xlink:href="#Roboto-Regular-74" transform="translate(510.742188 0.75)"/>
    <use xlink:href="#Roboto-Regular-65" transform="translate(543.408203 0.75)"/>
    <use xlink:href="#Roboto-Regular-6d" transform="translate(596.386719 0.75)"/>
    <use xlink:href="#Roboto-Regular-70" transform="translate(684.033203 0.75)"/>
    <use xlink:href="#Roboto-Regular-65" transform="translate(740.136719 0.75)"/>
    <use xlink:href="#Roboto-Regular-72" transform="translate(793.115234 0.75)"/>
    <use xlink:href="#Roboto-Regular-61" transform="translate(826.953125 0.75)"/>
    <use xlink:href="#Roboto-Regular-74" transform="translate(881.347656 0.75)"/>
    <use xlink:href="#Roboto-Regular-75" transform="translate(914.013672 0.75)"/>
    <use xlink:href="#Roboto-Regular-72" transform="translate(969.140625 0.75)"/>
    <use xlink:href="#Roboto-Regular-65" transform="translate(1002.978516 0.75)"/>
    <use xlink:href="#Roboto-Regular-20" transform="translate(1055.957031 0.75)"/>
    <use xlink:href="#Roboto-Regular-6f" transform="translate(1080.712891 0.75)"/>
    <use xlink:href="#Roboto-Regular-66" transform="translate(1137.744141 0.75)"/>
    <use xlink:href="#Roboto-Regular-20" transform="translate(1172.460938 0.75)"/>
    <use xlink:href="#Roboto-Regular-62" transform="translate(1197.216797 0.75)"/>
    <use xlink:href="#Roboto-Regular-6f" transform="translate(1253.320312 0.75)"/>
    <use xlink:href="#Roboto-Regular-72" transform="translate(1310.351562 0.75)"/>
    <use xlink:href="#Roboto-Regular-65" transform="translate(1344.189453 0.75)"/>
    <use xlink:href="#Roboto-Regular-66" transform="translate(1397.167969 0.75)"/>
    <use xlink:href="#Roboto-Regular-69" transform="translate(1431.884766 0.75)"/>
    <use xlink:href="#Roboto-Regular-65" transform="translate(1456.152344 0.75)"/>
    <use xlink:href="#Roboto-Regular-6c" transform="translate(1509.130859 0.75)"/>
    <use xlink:href="#Roboto-Regular-64" transform="translate(1533.398438 0.75)"/>
    <use xlink:href="#Roboto-Regular-20" transform="translate(1589.794922 0.75)"/>
    <use xlink:href="#Roboto-Regular-5b" transform="translate(1614.550781 0.75)"/>
    <use xlink:href="#DejaVuSans-2218" transform="translate(1642.021484 39.03125) scale(0.7)"/>
    <use xlink:href="#Roboto-Regular-43" transform="translate(1688.574219 0.75)"/>
    <use xlink:href="#Roboto-Regular-5d" transform="translate(1753.662109 0.75)"/>
   </g>
  </g>
  <g id="text_14">
   <!-- Probability density [1/$^{\circ}$C] -->
   <g transform="translate(10.842362 134.414291) rotate(-90) scale(0.07 -0.07)">
    <defs>
     <path id="Roboto-Regular-50" d="M 1128 1781 
L 1128 0 
L 528 0 
L 528 4550 
L 2206 4550 
Q 2953 4550 3376 4169 
Q 3800 3788 3800 3159 
Q 3800 2497 3386 2139 
Q 2972 1781 2200 1781 
L 1128 1781 
z
M 1128 2272 
L 2206 2272 
Q 2688 2272 2944 2498 
Q 3200 2725 3200 3153 
Q 3200 3559 2944 3803 
Q 2688 4047 2241 4056 
L 1128 4056 
L 1128 2272 
z
" transform="scale(0.015625)"/>
     <path id="Roboto-Regular-73" d="M 2406 897 
Q 2406 1131 2229 1261 
Q 2053 1391 1614 1484 
Q 1175 1578 917 1709 
Q 659 1841 536 2022 
Q 413 2203 413 2453 
Q 413 2869 764 3156 
Q 1116 3444 1663 3444 
Q 2238 3444 2595 3147 
Q 2953 2850 2953 2388 
L 2372 2388 
Q 2372 2625 2170 2797 
Q 1969 2969 1663 2969 
Q 1347 2969 1169 2831 
Q 991 2694 991 2472 
Q 991 2263 1156 2156 
Q 1322 2050 1755 1953 
Q 2188 1856 2456 1722 
Q 2725 1588 2854 1398 
Q 2984 1209 2984 938 
Q 2984 484 2621 210 
Q 2259 -63 1681 -63 
Q 1275 -63 962 81 
Q 650 225 473 483 
Q 297 741 297 1041 
L 875 1041 
Q 891 750 1108 579 
Q 1325 409 1681 409 
Q 2009 409 2207 542 
Q 2406 675 2406 897 
z
" transform="scale(0.015625)"/>
     <path id="Roboto-Regular-2f" d="M 553 -391 
L 56 -391 
L 1956 4550 
L 2450 4550 
L 553 -391 
z
" transform="scale(0.015625)"/>
    </defs>
    <use xlink:href="#Roboto-Regular-50" transform="translate(0 0.75)"/>
    <use xlink:href="#Roboto-Regular-72" transform="translate(63.085938 0.75)"/>
    <use xlink:href="#Roboto-Regular-6f" transform="translate(96.923828 0.75)"/>
    <use xlink:href="#Roboto-Regular-62" transform="translate(153.955078 0.75)"/>
    <use xlink:href="#Roboto-Regular-61" transform="translate(210.058594 0.75)"/>
    <use xlink:href="#Roboto-Regular-62" transform="translate(264.453125 0.75)"/>
    <use xlink:href="#Roboto-Regular-69" transform="translate(320.556641 0.75)"/>
    <use xlink:href="#Roboto-Regular-6c" transform="translate(344.824219 0.75)"/>
    <use xlink:href="#Roboto-Regular-69" transform="translate(369.091797 0.75)"/>
    <use xlink:href="#Roboto-Regular-74" transform="translate(393.359375 0.75)"/>
    <use xlink:href="#Roboto-Regular-79" transform="translate(426.025391 0.75)"/>
    <use xlink:href="#Roboto-Regular-20" transform="translate(473.339844 0.75)"/>
    <use xlink:href="#Roboto-Regular-64" transform="translate(498.095703 0.75)"/>
    <use xlink:href="#Roboto-Regular-65" transform="translate(554.492188 0.75)"/>
    <use xlink:href="#Roboto-Regular-6e" transform="translate(607.470703 0.75)"/>
    <use xlink:href="#Roboto-Regular-73" transform="translate(662.646484 0.75)"/>
    <use xlink:href="#Roboto-Regular-69" transform="translate(714.208984 0.75)"/>
    <use xlink:href="#Roboto-Regular-74" transform="translate(738.476562 0.75)"/>
    <use xlink:href="#Roboto-Regular-79" transform="translate(771.142578 0.75)"/>
    <use xlink:href="#Roboto-Regular-20" transform="translate(818.457031 0.75)"/>
    <use xlink:href="#Roboto-Regular-5b" transform="translate(843.212891 0.75)"/>
    <use xlink:href="#Roboto-Regular-31" transform="translate(869.726562 0.75)"/>
    <use xlink:href="#Roboto-Regular-2f" transform="translate(925.878906 0.75)"/>
    <use xlink:href="#DejaVuSans-2218" transform="translate(968.046875 39.03125) scale(0.7)"/>
    <use xlink:href="#Roboto-Regular-43" transform="translate(1014.599609 0.75)"/>
    <use xlink:href="#Roboto-Regular-5d" transform="translate(1079.6875 0.75)"/>
   </g>
  </g>
 </g>
 <defs>
  <clipPath id="p8047b6da9f">
   <rect x="20.409449" y="6.377953" width="227.055118" height="39.685039"/>
  </clipPath>
  <clipPath id="p91b1d14dd9">
   <rect x="20.409449" y="34.15748" width="227.055118" height="39.685039"/>
  </clipPath>
  <clipPath id="p3a94a5f667">
   <rect x="20.409449" y="61.937008" width="227.055118" height="39.685039"/>
  </clipPath>
  <clipPath id="p9b1294c13d">
   <rect x="20.409449" y="89.716535" width="227.055118" height="39.685039"/>
  </clipPath>
  <clipPath id="p25df9bb6d6">
   <rect x="20.409449" y="117.496063" width="227.055118" height="39.685039"/>
  </clipPath>
  <clipPath id="p6a2e4e06c8">
   <rect x="20.409449" y="145.275591" width="227.055118" height="39.685039"/>
  </clipPath>
 </defs>
</svg>
